<svg width="60" height="61" viewBox="0 0 60 61" fill="none" xmlns="http://www.w3.org/2000/svg">
<path fill-rule="evenodd" clip-rule="evenodd" d="M44.9879 22.604C44.9991 22.6452 45.0048 22.6874 45.0048 22.7296V29.3586C45.0048 29.4439 44.9822 29.5277 44.9394 29.6015C44.8966 29.6752 44.8351 29.7363 44.761 29.7786L39.1979 32.9821V39.3308C39.1978 39.4158 39.1754 39.4992 39.133 39.5727C39.0905 39.6463 39.0295 39.7074 38.956 39.7499L27.3423 46.4361C27.3151 46.4511 27.286 46.4605 27.2579 46.4708C27.2466 46.4746 27.2363 46.4811 27.2251 46.4849C27.144 46.5062 27.0587 46.5062 26.9776 46.4849C26.9635 46.4811 26.9523 46.4737 26.9391 46.469C26.9129 46.4596 26.8848 46.4502 26.8594 46.4361L15.2476 39.7499C15.1739 39.7075 15.1127 39.6464 15.0701 39.5729C15.0275 39.4993 15.0049 39.4158 15.0048 39.3308V19.4436C15.0048 19.4005 15.0104 19.3583 15.0216 19.3171C15.0254 19.303 15.0338 19.2908 15.0385 19.2768C15.0479 19.2515 15.0563 19.2252 15.0694 19.2018C15.0788 19.1858 15.0919 19.1736 15.1023 19.1586C15.1163 19.1399 15.1294 19.1193 15.1454 19.1024C15.1594 19.0883 15.1773 19.078 15.1932 19.0658C15.211 19.0518 15.226 19.0358 15.2466 19.0246L21.0535 15.6815C21.127 15.6393 21.2102 15.6171 21.2949 15.6171C21.3796 15.6171 21.4629 15.6393 21.5363 15.6815L27.3432 19.0246C27.3629 19.0368 27.3798 19.0518 27.3966 19.0658C27.4126 19.078 27.4304 19.0883 27.4435 19.1015C27.4613 19.1202 27.4735 19.139 27.4876 19.1586C27.4979 19.1736 27.5119 19.1858 27.5204 19.2018C27.5344 19.2252 27.5419 19.2515 27.5523 19.2768C27.5569 19.2908 27.5654 19.303 27.5682 19.318C27.5796 19.3589 27.5856 19.4012 27.586 19.4436V31.8655L32.4235 29.0793V22.7296C32.424 22.6871 32.4299 22.6449 32.4413 22.604C32.4451 22.589 32.4526 22.5758 32.4582 22.5627C32.4676 22.5374 32.476 22.5111 32.4891 22.4877C32.4985 22.4718 32.5116 22.4596 32.5219 22.4446C32.536 22.4258 32.5482 22.4052 32.5651 22.3883C32.5791 22.3743 32.5969 22.3649 32.6119 22.3527C32.6307 22.3377 32.6466 22.3218 32.6654 22.3105L38.4732 18.9674C38.5466 18.9251 38.6299 18.9029 38.7146 18.9029C38.7993 18.9029 38.8826 18.9251 38.956 18.9674L44.7629 22.3105C44.7835 22.3227 44.7985 22.3386 44.8173 22.3518C44.8323 22.364 44.8491 22.3743 44.8641 22.3883C44.8801 22.4052 44.8923 22.4258 44.9073 22.4446C44.9176 22.4596 44.9307 22.4727 44.9391 22.4877C44.9532 22.5111 44.9616 22.5374 44.971 22.5627C44.9766 22.5768 44.9841 22.589 44.9879 22.604ZM44.0373 29.0793V23.5668L42.0048 24.7368L39.1979 26.353V31.8655L44.0373 29.0793ZM38.2304 39.0515V33.5352L35.4694 35.1121L27.5851 39.6121V45.1808L38.2304 39.0515ZM15.9723 20.2808V39.0515L26.6176 45.1799V39.613L21.0563 36.4658L21.0544 36.464L21.0516 36.463C21.0329 36.4518 21.0179 36.4368 21.0001 36.4227C20.9851 36.4115 20.9673 36.4011 20.9541 36.388L20.9532 36.3861C20.9373 36.3711 20.926 36.3524 20.9129 36.3355C20.9007 36.3196 20.8866 36.3055 20.8773 36.2886L20.8763 36.2868C20.8651 36.268 20.8585 36.2465 20.851 36.2258C20.8426 36.208 20.8323 36.1911 20.8276 36.1715C20.8219 36.148 20.821 36.1246 20.8182 36.1002C20.8154 36.0815 20.8107 36.0646 20.8107 36.0458V23.0661L18.0048 21.4499L15.9723 20.2808ZM21.2954 16.6593L16.4579 19.4436L21.2944 22.228L26.1319 19.4436L21.2954 16.6593ZM23.8116 34.0377L26.6176 32.4224V20.2808L24.586 21.4499L21.7791 23.0661V35.2077L23.8116 34.0377ZM38.7141 19.9452L33.8766 22.7296L38.7141 25.514L43.5498 22.7296L38.7141 19.9452ZM38.2294 26.353L35.4226 24.7368L33.391 23.5668V29.0793L36.1969 30.6946L38.2294 31.8655V26.353ZM27.0994 38.7749L34.1944 34.7249L37.741 32.6999L32.9073 29.9174L27.3423 33.1218L22.2704 36.0421L27.0994 38.7749Z" fill="#FF2D20"/>
</svg>
