<svg width="60" height="61" viewBox="0 0 60 61" fill="none" xmlns="http://www.w3.org/2000/svg">
<g clip-path="url(#clip0_29_78)">
<path d="M11.7503 54.0512C11.4914 54.0512 11.277 53.8417 11.277 53.5826C11.277 53.3235 11.4821 53.1138 11.7411 53.1138H11.7502C12.0092 53.1138 12.219 53.3235 12.219 53.5826C12.219 53.8417 12.0093 54.0512 11.7503 54.0512ZM11.7503 55.926C11.4914 55.926 11.277 55.7163 11.277 55.4573C11.277 55.1982 11.4821 54.9886 11.7411 54.9886H11.7502C12.0092 54.9886 12.219 55.1982 12.219 55.4573C12.219 55.5189 12.2069 55.5798 12.1834 55.6367C12.1598 55.6936 12.1253 55.7452 12.0818 55.7888C12.0383 55.8323 11.9866 55.8668 11.9297 55.8904C11.8728 55.9139 11.8119 55.926 11.7503 55.926ZM11.722 57.8007H0.473394C0.411843 57.8008 0.35089 57.7887 0.294019 57.7651C0.237148 57.7416 0.185474 57.7071 0.141951 57.6635C0.0984287 57.62 0.0639107 57.5683 0.0403706 57.5115C0.0168305 57.4546 0.00472999 57.3936 0.0047608 57.3321V54.2087C0.0047608 52.3815 0.976011 51.6612 2.65308 51.034C3.21417 50.8244 4.70539 50.267 5.89636 49.6985C5.9518 49.6718 6.01198 49.6563 6.07343 49.6529C6.13489 49.6496 6.1964 49.6584 6.25442 49.6789C6.31245 49.6994 6.36584 49.7312 6.41153 49.7724C6.45722 49.8137 6.49429 49.8635 6.52062 49.9192C6.54719 49.9747 6.56257 50.0349 6.56587 50.0964C6.56916 50.1579 6.56032 50.2194 6.53984 50.2774C6.51936 50.3355 6.48765 50.389 6.44651 50.4347C6.40537 50.4805 6.35561 50.5178 6.30007 50.5444C5.1998 51.0697 3.87875 51.577 2.98179 51.913C1.38066 52.5108 0.942261 53.0041 0.942261 54.2088V56.8635H11.7221C11.8464 56.8635 11.9656 56.9129 12.0535 57.0008C12.1413 57.0887 12.1907 57.2079 12.1907 57.3322C12.1907 57.4564 12.1413 57.5756 12.0534 57.6635C11.9655 57.7514 11.8463 57.8007 11.722 57.8007Z" fill="black"/>
<path d="M22.9705 57.8007H11.7219C11.463 57.8007 11.2532 57.5911 11.2532 57.3321C11.2532 57.073 11.4628 56.8634 11.7219 56.8634H22.5018V54.2087C22.5018 53.004 22.0634 52.5107 20.4632 51.9129C19.5652 51.576 18.2433 51.0688 17.1421 50.5416C17.0866 50.515 17.0368 50.4778 16.9957 50.4319C16.9546 50.3861 16.9229 50.3326 16.9025 50.2746C16.8821 50.2165 16.8733 50.1549 16.8767 50.0935C16.8802 50.032 16.8957 49.9718 16.9224 49.9164C17.0331 49.6829 17.3141 49.5831 17.5467 49.6957C18.615 50.2075 19.9103 50.7045 20.7918 51.034C22.4689 51.6612 23.4392 52.3815 23.4392 54.2087V57.3321C23.4392 57.3937 23.4271 57.4546 23.4036 57.5115C23.38 57.5684 23.3455 57.62 23.302 57.6636C23.2585 57.7071 23.2068 57.7416 23.1499 57.7651C23.093 57.7887 23.0321 57.8008 22.9705 57.8007ZM11.7503 50.4298C9.10198 50.4298 4.71999 46.2143 4.71999 41.4103C4.71999 41.1512 4.92964 40.9416 5.18874 40.9416C5.2503 40.9415 5.31126 40.9536 5.36814 40.9772C5.42502 41.0007 5.4767 41.0353 5.52022 41.0788C5.56375 41.1223 5.59826 41.174 5.6218 41.2309C5.64533 41.2878 5.65742 41.3488 5.65737 41.4103C5.65737 45.5781 9.45905 49.4924 11.7504 49.4924C14.0426 49.4924 17.8434 45.5782 17.8434 41.4103C17.8434 41.1512 18.053 40.9416 18.3121 40.9416C18.5712 40.9416 18.7809 41.1512 18.7809 41.4103C18.7806 46.2144 14.3994 50.4298 11.7503 50.4298ZM5.16026 40.9279C5.12276 40.9279 5.08433 40.9233 5.04577 40.9132C4.95183 40.8897 4.8675 40.8376 4.8044 40.7641C4.74129 40.6907 4.7025 40.5995 4.69339 40.503C4.44436 37.8356 5.02749 35.7027 6.42905 34.1639C8.49331 31.8963 11.8409 31.4209 14.2851 31.4209C15.5611 31.4209 16.4435 31.5537 16.4802 31.5596C16.5814 31.5753 16.6747 31.6236 16.7459 31.6971C16.8171 31.7706 16.8624 31.8654 16.8748 31.967C16.8869 32.0688 16.8653 32.1718 16.8134 32.2603C16.7615 32.3487 16.6821 32.4177 16.5873 32.4568C15.5602 32.8788 15.6536 33.872 15.7818 34.3866C16.2605 34.4048 17.2226 34.5586 17.9549 35.4154C18.8474 36.4571 19.1138 38.178 18.7467 40.5315C18.7322 40.6248 18.6898 40.7115 18.6251 40.7803C18.5605 40.8491 18.4765 40.8967 18.3843 40.917C18.2921 40.9369 18.196 40.9287 18.1086 40.8934C18.0211 40.8582 17.9462 40.7974 17.8936 40.7191L16.2266 38.2192C15.4816 38.4893 13.6928 39.0531 11.7503 39.0531C9.80147 39.0531 7.97429 38.4855 7.21901 38.2164L5.55026 40.719C5.50746 40.7832 5.44947 40.8359 5.38144 40.8723C5.31341 40.9088 5.23744 40.9278 5.16026 40.9279ZM16.4087 37.1783C16.5617 37.1783 16.7099 37.2534 16.7987 37.387L17.9558 39.1218C18.0272 37.7167 17.7865 36.6584 17.2428 36.025C16.7192 35.4124 16.0308 35.3209 15.6674 35.3209C15.5759 35.3209 15.5173 35.3273 15.5053 35.3291C15.2894 35.3529 15.0879 35.2376 15.0084 35.0399C14.7492 34.4019 14.5725 33.2439 15.1895 32.3815C14.9222 32.3678 14.6165 32.3577 14.2851 32.3577C12.0294 32.3577 8.95644 32.7805 7.12198 34.7945C6.15987 35.8509 5.64354 37.256 5.58132 38.9824L6.64503 37.3869C6.70481 37.2964 6.79426 37.2295 6.898 37.1978C7.00175 37.166 7.11331 37.1714 7.21351 37.213C7.23554 37.2221 9.44253 38.1156 11.7503 38.1156C14.0562 38.1156 16.2057 37.224 16.2276 37.2148C16.2849 37.1907 16.3465 37.1783 16.4087 37.1783Z" fill="black"/>
<path d="M18.3121 41.879C18.053 41.879 17.8433 41.6693 17.8433 41.4103V40.4591C17.8433 40.2001 18.053 39.9905 18.3121 39.9905C18.5712 39.9905 18.7808 40.2001 18.7808 40.4591V41.4103C18.7808 41.4719 18.7687 41.5328 18.7452 41.5897C18.7216 41.6466 18.6871 41.6983 18.6436 41.7418C18.6 41.7853 18.5483 41.8198 18.4915 41.8433C18.4346 41.8669 18.3736 41.879 18.3121 41.879ZM5.18872 41.879C4.92962 41.879 4.71997 41.6693 4.71997 41.4103V40.4591C4.71994 40.3976 4.73204 40.3366 4.75559 40.2797C4.77914 40.2228 4.81367 40.1711 4.8572 40.1276C4.90074 40.0841 4.95243 40.0496 5.00931 40.0261C5.0662 40.0025 5.12716 39.9904 5.18872 39.9905C5.25027 39.9904 5.31122 40.0025 5.3681 40.0261C5.42497 40.0496 5.47664 40.0841 5.52016 40.1277C5.56369 40.1712 5.5982 40.2229 5.62174 40.2797C5.64528 40.3366 5.65738 40.3976 5.65735 40.4591V41.4103C5.65738 41.4719 5.64528 41.5328 5.62174 41.5897C5.5982 41.6466 5.56369 41.6982 5.52016 41.7418C5.47664 41.7853 5.42497 41.8198 5.3681 41.8433C5.31122 41.8669 5.25027 41.879 5.18872 41.879ZM9.86192 52.1765C9.73771 52.1761 9.61864 52.1268 9.53052 52.0392L6.71837 49.2271C6.63364 49.1385 6.58695 49.0203 6.58831 48.8978C6.58966 48.7753 6.63894 48.6581 6.7256 48.5715C6.81226 48.4849 6.9294 48.4356 7.05194 48.4343C7.17448 48.4329 7.29266 48.4796 7.38118 48.5644L9.95532 51.1384L11.5426 50.3513C11.5979 50.3222 11.6583 50.3044 11.7205 50.299C11.7827 50.2937 11.8454 50.3008 11.9048 50.32C11.9642 50.3391 12.0191 50.37 12.0664 50.4108C12.1137 50.4515 12.1524 50.5013 12.1801 50.5572C12.2079 50.6131 12.2242 50.674 12.2281 50.7363C12.232 50.7986 12.2234 50.8611 12.2028 50.92C12.1822 50.9789 12.15 51.0331 12.1081 51.0794C12.0663 51.1257 12.0156 51.1632 11.959 51.1896L10.0705 52.127C10.0058 52.1595 9.93435 52.1764 9.86192 52.1765Z" fill="black"/>
<path d="M13.6105 52.1764C13.54 52.1764 13.4687 52.1599 13.4027 52.127L11.5142 51.1896C11.4061 51.1326 11.3245 51.0356 11.287 50.9193C11.2494 50.803 11.2588 50.6766 11.3131 50.5671C11.3675 50.4577 11.4625 50.3738 11.5779 50.3335C11.6933 50.2931 11.8199 50.2995 11.9306 50.3512L13.5171 51.1384L16.0912 48.5644C16.1797 48.4796 16.2979 48.4329 16.4205 48.4342C16.543 48.4356 16.6601 48.4848 16.7468 48.5715C16.8335 48.6581 16.8827 48.7752 16.8841 48.8978C16.8854 49.0203 16.8388 49.1385 16.754 49.227L13.9419 52.0392C13.8539 52.127 13.7348 52.1764 13.6105 52.1764ZM48.2797 57.8007H37.0312C36.7721 57.8007 36.5625 57.5911 36.5625 57.3321V54.2087C36.5625 52.3815 37.5337 51.6621 39.2108 51.034C40.1702 50.6751 41.4059 50.1983 42.4532 49.6985C42.6875 49.5859 42.9668 49.6848 43.0784 49.9192C43.105 49.9747 43.1204 50.0349 43.1237 50.0964C43.127 50.1579 43.1181 50.2194 43.0976 50.2775C43.0771 50.3355 43.0454 50.389 43.0042 50.4348C42.9631 50.4806 42.9133 50.5178 42.8578 50.5444C41.7775 51.0596 40.5171 51.5468 39.5395 51.913C37.9385 52.5116 37.5 53.0041 37.5 54.2088V56.8635H48.2798C48.3414 56.8634 48.4023 56.8755 48.4592 56.8991C48.5161 56.9226 48.5678 56.9572 48.6113 57.0007C48.6548 57.0442 48.6893 57.0959 48.7129 57.1528C48.7364 57.2097 48.7485 57.2706 48.7484 57.3322C48.7484 57.3937 48.7363 57.4547 48.7128 57.5116C48.6892 57.5684 48.6547 57.6201 48.6111 57.6636C48.5676 57.7071 48.5159 57.7416 48.4591 57.7651C48.4022 57.7887 48.3412 57.8008 48.2797 57.8007Z" fill="black"/>
<path d="M59.5283 57.8008H48.2798C48.2183 57.8008 48.1573 57.7887 48.1004 57.7652C48.0436 57.7416 47.9919 57.7071 47.9484 57.6636C47.9049 57.6201 47.8703 57.5684 47.8468 57.5115C47.8233 57.4546 47.8112 57.3937 47.8112 57.3321C47.8112 57.073 48.0207 56.8634 48.2798 56.8634H59.0597V54.2087C59.0597 53.004 58.6211 52.5098 57.0211 51.9129C56.0424 51.5467 54.7811 51.0597 53.7 50.5416C53.5878 50.4879 53.5016 50.3919 53.4602 50.2747C53.4189 50.1574 53.4257 50.0286 53.4793 49.9164C53.591 49.6811 53.8739 49.5831 54.1045 49.6957C55.1526 50.1983 56.3894 50.6752 57.3497 51.034C59.0258 51.6603 59.997 52.3815 59.997 54.2087V57.3321C59.9971 57.3937 59.985 57.4547 59.9614 57.5115C59.9379 57.5684 59.9033 57.6201 59.8598 57.6636C59.8163 57.7071 59.7646 57.7417 59.7077 57.7652C59.6508 57.7887 59.5899 57.8008 59.5283 57.8008ZM48.309 50.4298C45.6607 50.4298 41.2787 46.2143 41.2787 41.4103C41.2787 41.1512 41.4883 40.9416 41.7473 40.9416C42.0064 40.9416 42.2161 41.1512 42.2161 41.4103C42.2161 45.5781 46.0169 49.4924 48.309 49.4924C50.6011 49.4924 54.4019 45.5782 54.4019 41.4103C54.4019 41.1512 54.6116 40.9416 54.8707 40.9416C54.9322 40.9416 54.9932 40.9537 55.0501 40.9772C55.107 41.0008 55.1586 41.0353 55.2022 41.0788C55.2457 41.1224 55.2802 41.174 55.3037 41.2309C55.3273 41.2878 55.3394 41.3488 55.3393 41.4103C55.3393 46.2144 50.9573 50.4298 48.309 50.4298Z" fill="black"/>
<path d="M54.8707 41.879C54.6116 41.879 54.4019 41.6693 54.4019 41.4103V40.4591C54.4019 40.3976 54.414 40.3366 54.4376 40.2797C54.4611 40.2228 54.4956 40.1711 54.5392 40.1276C54.5827 40.0841 54.6344 40.0496 54.6913 40.0261C54.7482 40.0025 54.8091 39.9904 54.8707 39.9905C54.9322 39.9904 54.9932 40.0025 55.0501 40.0261C55.1069 40.0496 55.1586 40.0841 55.2021 40.1277C55.2456 40.1712 55.2802 40.2229 55.3037 40.2797C55.3272 40.3366 55.3393 40.3976 55.3393 40.4591V41.4103C55.3393 41.4719 55.3272 41.5328 55.3037 41.5897C55.2802 41.6466 55.2456 41.6982 55.2021 41.7418C55.1586 41.7853 55.1069 41.8198 55.0501 41.8433C54.9932 41.8669 54.9322 41.879 54.8707 41.879ZM41.7473 41.879C41.6858 41.879 41.6248 41.8669 41.5679 41.8433C41.5111 41.8198 41.4594 41.7853 41.4159 41.7418C41.3724 41.6982 41.3378 41.6466 41.3143 41.5897C41.2908 41.5328 41.2787 41.4719 41.2787 41.4103V40.4591C41.2787 40.3976 41.2908 40.3366 41.3143 40.2797C41.3378 40.2229 41.3724 40.1712 41.4159 40.1277C41.4594 40.0841 41.5111 40.0496 41.5679 40.0261C41.6248 40.0025 41.6858 39.9904 41.7473 39.9905C42.0064 39.9905 42.2161 40.2001 42.2161 40.4591V41.4103C42.2161 41.4719 42.204 41.5328 42.1804 41.5897C42.1569 41.6466 42.1224 41.6983 42.0788 41.7418C42.0353 41.7853 41.9836 41.8198 41.9267 41.8434C41.8698 41.8669 41.8089 41.879 41.7473 41.879ZM46.4196 52.1765C46.3581 52.1765 46.2971 52.1643 46.2403 52.1408C46.1834 52.1173 46.1318 52.0827 46.0883 52.0392L43.2761 49.2271C43.1883 49.1392 43.1389 49.02 43.1389 48.8957C43.1389 48.7715 43.1883 48.6523 43.2761 48.5644C43.364 48.4765 43.4832 48.4271 43.6075 48.4271C43.7318 48.4271 43.851 48.4765 43.9388 48.5644L46.513 51.1384L48.1003 50.3513C48.1554 50.3237 48.2154 50.3073 48.2768 50.3029C48.3383 50.2986 48.4 50.3064 48.4584 50.326C48.5168 50.3455 48.5708 50.3764 48.6172 50.4169C48.6637 50.4573 48.7017 50.5065 48.7291 50.5617C48.8436 50.7942 48.7493 51.0752 48.5177 51.1896L46.6283 52.127C46.5634 52.1593 46.492 52.1762 46.4196 52.1765Z" fill="black"/>
<path d="M50.1691 52.1764C50.0967 52.1762 50.0253 52.1593 49.9604 52.127L48.071 51.1896C47.9609 51.1336 47.8774 51.0364 47.8386 50.9191C47.7998 50.8019 47.809 50.674 47.864 50.5635C47.9191 50.4529 48.0156 50.3686 48.1325 50.3288C48.2495 50.2891 48.3774 50.2971 48.4884 50.3512L50.0757 51.1384L52.6499 48.5644C52.6934 48.5209 52.745 48.4863 52.8019 48.4628C52.8587 48.4392 52.9197 48.4271 52.9812 48.4271C53.0428 48.4271 53.1037 48.4392 53.1605 48.4628C53.2174 48.4863 53.2691 48.5209 53.3126 48.5644C53.3561 48.6079 53.3906 48.6595 53.4141 48.7164C53.4377 48.7732 53.4498 48.8342 53.4498 48.8957C53.4498 48.9573 53.4377 49.0182 53.4141 49.075C53.3906 49.1319 53.3561 49.1836 53.3126 49.2271L50.5004 52.0392C50.4125 52.127 50.2934 52.1764 50.1691 52.1764ZM39.8433 41.8652C39.7614 41.8651 39.681 41.8436 39.6099 41.803C39.5385 41.7619 39.4792 41.7026 39.4379 41.6313C39.3966 41.56 39.3748 41.479 39.3746 41.3966C39.3746 36.6785 41.7336 34.5575 42.8788 33.806L42.3369 33.3045C42.2781 33.2496 42.2342 33.1806 42.2096 33.104C42.1849 33.0274 42.1802 32.9458 42.1959 32.8669C42.212 32.7878 42.2483 32.7142 42.3013 32.6533C42.3542 32.5923 42.422 32.5461 42.498 32.5191C42.6024 32.4816 45.0868 31.6055 47.866 31.6055C50.3633 31.6055 52.2819 32.3075 53.5671 33.6926C54.966 35.1993 55.5617 37.4879 55.3384 40.494C55.3312 40.5905 55.2943 40.6824 55.2329 40.7571C55.1714 40.8318 55.0884 40.8857 54.9951 40.9114C54.9019 40.9365 54.8032 40.9323 54.7124 40.8996C54.6215 40.8669 54.5429 40.8071 54.487 40.7284L52.6434 38.1039C46.9175 37.8696 40.1444 41.7636 40.0785 41.8022C40.007 41.8436 39.9259 41.8654 39.8433 41.8652ZM43.5717 33.1698L43.9864 33.5532C44.0437 33.6064 44.0868 33.673 44.1119 33.747C44.137 33.821 44.1433 33.9001 44.1302 33.9771C44.1168 34.054 44.0844 34.1264 44.036 34.1876C43.9875 34.2488 43.9246 34.297 43.8528 34.3277C43.7174 34.3882 40.6508 35.7896 40.3377 40.5927C42.3159 39.5529 47.9448 36.8853 52.9228 37.1791C52.9933 37.1832 53.0619 37.2032 53.1236 37.2376C53.1853 37.272 53.2383 37.3199 53.2788 37.3778L54.4441 39.0364C54.4038 36.9859 53.8794 35.406 52.8797 34.3295C51.7793 33.144 50.0922 32.5426 47.866 32.5426C46.1368 32.5428 44.4927 32.9162 43.5717 33.1698ZM48.2797 53.1138C48.2182 53.1139 48.1572 53.1018 48.1004 53.0782C48.0435 53.0547 47.9919 53.0201 47.9484 52.9765L47.0109 52.0392C46.9662 51.996 46.9304 51.9443 46.9059 51.8871C46.8813 51.8299 46.8684 51.7684 46.8678 51.7061C46.8673 51.6439 46.8792 51.5822 46.9027 51.5245C46.9263 51.4669 46.9611 51.4146 47.0051 51.3706C47.0491 51.3266 47.1015 51.2918 47.1591 51.2682C47.2167 51.2446 47.2784 51.2328 47.3406 51.2333C47.4029 51.2339 47.4644 51.2468 47.5216 51.2714C47.5788 51.2959 47.6305 51.3316 47.6737 51.3764L48.6111 52.3138C48.6767 52.3793 48.7214 52.4628 48.7395 52.5537C48.7577 52.6447 48.7484 52.7389 48.7129 52.8246C48.6774 52.9103 48.6173 52.9835 48.5402 53.035C48.4631 53.0864 48.3724 53.1139 48.2797 53.1138Z" fill="black"/>
<path d="M48.2797 53.1138C48.187 53.1138 48.0963 53.0864 48.0192 53.0349C47.9421 52.9834 47.882 52.9102 47.8466 52.8245C47.8111 52.7389 47.8018 52.6446 47.82 52.5537C47.8381 52.4628 47.8828 52.3793 47.9484 52.3138L48.8856 51.3764C48.9289 51.3316 48.9806 51.2959 49.0378 51.2713C49.095 51.2468 49.1565 51.2338 49.2187 51.2333C49.281 51.2328 49.3427 51.2446 49.4003 51.2682C49.4579 51.2917 49.5102 51.3266 49.5543 51.3706C49.5983 51.4146 49.6331 51.4669 49.6566 51.5245C49.6802 51.5821 49.6921 51.6439 49.6915 51.7061C49.691 51.7683 49.6781 51.8298 49.6535 51.887C49.6289 51.9442 49.5932 51.9959 49.5485 52.0392L48.6111 52.9765C48.5676 53.0201 48.5159 53.0546 48.4591 53.0782C48.4022 53.1018 48.3412 53.1139 48.2797 53.1138Z" fill="black"/>
<path d="M47.3432 56.8634C47.2772 56.8635 47.212 56.8497 47.1518 56.8229C47.0915 56.7961 47.0376 56.7568 46.9935 56.7078C46.9495 56.6587 46.9163 56.6009 46.8961 56.5381C46.8759 56.4753 46.8691 56.409 46.8763 56.3434L47.3451 52.1253C47.3734 51.8672 47.5977 51.6785 47.8633 51.7107C47.9867 51.7245 48.0995 51.7867 48.1771 51.8837C48.2546 51.9806 48.2905 52.1044 48.277 52.2278L47.8083 56.446C47.7956 56.5605 47.7411 56.6664 47.6554 56.7434C47.5696 56.8204 47.4585 56.8631 47.3432 56.8634Z" fill="black"/>
<path d="M49.2162 56.8634C49.101 56.8631 48.9899 56.8203 48.9041 56.7434C48.8183 56.6664 48.7639 56.5605 48.7511 56.4459L48.2825 52.2278C48.2689 52.1044 48.3048 51.9806 48.3824 51.8837C48.4599 51.7867 48.5728 51.7245 48.6962 51.7106C48.9617 51.6795 49.186 51.8672 49.2144 52.1252L49.6831 56.3434C49.6903 56.409 49.6836 56.4753 49.6634 56.5381C49.6432 56.6009 49.61 56.6587 49.566 56.7078C49.5219 56.7569 49.468 56.7961 49.4077 56.8229C49.3474 56.8497 49.2822 56.8635 49.2162 56.8634ZM45.4675 30.6168C45.4181 30.6168 45.3677 30.609 45.3192 30.5925L39.7673 28.742H23.908C22.6163 28.742 21.5645 27.6906 21.5645 26.3986V9.52571C21.5645 8.2336 22.6163 7.18219 23.908 7.18219H50.1546C51.4471 7.18219 52.498 8.2336 52.498 9.52571V26.3985C52.498 27.6905 51.4471 28.7419 50.1546 28.7419H45.9364V30.148C45.9364 30.2096 45.9243 30.2706 45.9008 30.3275C45.8772 30.3844 45.8427 30.436 45.7991 30.4796C45.7556 30.5231 45.7039 30.5576 45.647 30.5812C45.5901 30.6047 45.5291 30.6168 45.4675 30.6168ZM23.908 8.11957C23.1325 8.11957 22.5018 8.75039 22.5018 9.52571V26.3985C22.5018 27.1738 23.1325 27.8045 23.908 27.8045H39.8432C39.8936 27.8045 39.9439 27.8127 39.9916 27.8288L44.9989 29.4975V28.2732C44.9989 28.0141 45.2084 27.8045 45.4675 27.8045H50.1545C50.9298 27.8045 51.5605 27.1738 51.5605 26.3985V9.52571C51.5605 8.75039 50.9298 8.11957 50.1545 8.11957H23.908Z" fill="black"/>
<path d="M45.4675 13.744H27.6573C27.3984 13.744 27.1886 13.5344 27.1886 13.2754C27.1886 13.0163 27.3982 12.8066 27.6573 12.8066H45.4675C45.7266 12.8066 45.9363 13.0163 45.9363 13.2754C45.9363 13.3369 45.9242 13.3979 45.9006 13.4548C45.8771 13.5116 45.8425 13.5633 45.799 13.6068C45.7555 13.6503 45.7038 13.6849 45.6469 13.7084C45.59 13.7319 45.5291 13.744 45.4675 13.744ZM45.4675 18.4309H27.6573C27.3984 18.4309 27.1886 18.2213 27.1886 17.9622C27.1886 17.9006 27.2007 17.8397 27.2242 17.7828C27.2478 17.7259 27.2823 17.6742 27.3258 17.6307C27.3694 17.5872 27.4211 17.5527 27.4779 17.5291C27.5348 17.5056 27.5958 17.4935 27.6573 17.4935H45.4675C45.7266 17.4935 45.9363 17.7032 45.9363 17.9622C45.9363 18.2213 45.7266 18.4309 45.4675 18.4309ZM37.0312 23.1177H27.6573C27.3984 23.1177 27.1886 22.9082 27.1886 22.6491C27.1886 22.39 27.3982 22.1803 27.6573 22.1803H37.0312C37.2903 22.1803 37.4998 22.39 37.4998 22.6491C37.4998 22.9082 37.2903 23.1177 37.0312 23.1177ZM41.718 6.24483H32.3443C32.2827 6.24486 32.2218 6.23276 32.1649 6.20922C32.108 6.18568 32.0563 6.15116 32.0128 6.10764C31.9693 6.06412 31.9348 6.01244 31.9112 5.95557C31.8877 5.8987 31.8756 5.83775 31.8756 5.7762V3.90143C31.8756 3.83988 31.8877 3.77893 31.9112 3.72206C31.9348 3.66519 31.9693 3.61351 32.0128 3.56999C32.0563 3.52647 32.108 3.49195 32.1649 3.46841C32.2218 3.44487 32.2827 3.43277 32.3443 3.4328H41.718C41.9771 3.4328 42.1867 3.64233 42.1867 3.90143V5.7762C42.1868 5.83776 42.1747 5.89872 42.1511 5.9556C42.1276 6.01248 42.093 6.06416 42.0495 6.10768C42.006 6.15121 41.9543 6.18572 41.8974 6.20926C41.8405 6.23279 41.7795 6.24488 41.718 6.24483ZM32.8129 5.30757H41.2493V4.37018H32.8129V5.30757Z" fill="black"/>
<path d="M32.3443 7.18221C32.2827 7.18225 32.2218 7.17014 32.1649 7.1466C32.108 7.12306 32.0563 7.08855 32.0128 7.04502C31.9693 7.0015 31.9348 6.94983 31.9112 6.89296C31.8877 6.83609 31.8756 6.77513 31.8756 6.71358V5.7762C31.8756 5.71465 31.8877 5.6537 31.9112 5.59682C31.9348 5.53995 31.9693 5.48828 32.0128 5.44476C32.0563 5.40123 32.108 5.36672 32.1649 5.34318C32.2218 5.31964 32.2827 5.30754 32.3443 5.30757C32.4058 5.30752 32.4668 5.31961 32.5236 5.34314C32.5805 5.36668 32.6322 5.4012 32.6757 5.44472C32.7193 5.48825 32.7538 5.53993 32.7773 5.59681C32.8008 5.65368 32.8129 5.71464 32.8129 5.7762V6.71358C32.8129 6.77514 32.8008 6.8361 32.7773 6.89297C32.7538 6.94985 32.7193 7.00153 32.6757 7.04506C32.6322 7.08858 32.5805 7.1231 32.5236 7.14664C32.4668 7.17017 32.4058 7.18226 32.3443 7.18221ZM41.718 7.18221C41.6564 7.18225 41.5955 7.17014 41.5386 7.1466C41.4817 7.12306 41.43 7.08855 41.3865 7.04502C41.343 7.0015 41.3085 6.94983 41.2849 6.89296C41.2614 6.83609 41.2493 6.77513 41.2493 6.71358V5.7762C41.2493 5.71465 41.2614 5.6537 41.2849 5.59682C41.3085 5.53995 41.343 5.48828 41.3865 5.44476C41.43 5.40123 41.4817 5.36672 41.5386 5.34318C41.5955 5.31964 41.6564 5.30754 41.718 5.30757C41.9771 5.30757 42.1867 5.5171 42.1867 5.7762V6.71358C42.1867 6.77514 42.1746 6.8361 42.1511 6.89298C42.1275 6.94986 42.093 7.00154 42.0495 7.04507C42.0059 7.08859 41.9543 7.12311 41.8974 7.14664C41.8405 7.17017 41.7795 7.18226 41.718 7.18221ZM28.5947 7.65096H25.7826C25.5236 7.65096 25.3138 7.44132 25.3138 7.18221C25.3138 7.12065 25.3259 7.05969 25.3494 7.00281C25.373 6.94593 25.4075 6.89425 25.4511 6.85073C25.4946 6.80721 25.5463 6.77269 25.6032 6.74916C25.66 6.72562 25.721 6.71354 25.7826 6.71358H28.5947C28.8538 6.71358 29.0635 6.92323 29.0635 7.18221C29.0635 7.44132 28.8538 7.65096 28.5947 7.65096ZM48.2796 7.65096H45.4675C45.4059 7.651 45.345 7.63889 45.2881 7.61534C45.2312 7.5918 45.1795 7.55727 45.136 7.51373C45.0925 7.4702 45.058 7.41851 45.0344 7.36162C45.0109 7.30474 44.9988 7.24377 44.9989 7.18221C44.9988 7.12066 45.0109 7.05971 45.0345 7.00284C45.058 6.94597 45.0925 6.8943 45.1361 6.85077C45.1796 6.80725 45.2312 6.77273 45.2881 6.74919C45.345 6.72565 45.4059 6.71355 45.4675 6.71358H48.2796C48.3412 6.71355 48.4021 6.72565 48.459 6.74919C48.5159 6.77273 48.5676 6.80725 48.6111 6.85077C48.6546 6.8943 48.6891 6.94597 48.7127 7.00284C48.7362 7.05971 48.7483 7.12066 48.7483 7.18221C48.7483 7.44132 48.5387 7.65096 48.2796 7.65096ZM34.219 4.83882C34.1575 4.83885 34.0965 4.82675 34.0396 4.80321C33.9828 4.77967 33.9311 4.74515 33.8876 4.70163C33.8441 4.6581 33.8095 4.60643 33.786 4.54956C33.7625 4.49269 33.7504 4.43173 33.7504 4.37018V3.90143C33.7504 3.64233 33.9599 3.4328 34.219 3.4328C34.4781 3.4328 34.6877 3.64233 34.6877 3.90143V4.37018C34.6877 4.43173 34.6756 4.49269 34.652 4.54956C34.6285 4.60643 34.594 4.6581 34.5505 4.70163C34.5069 4.74515 34.4553 4.77967 34.3984 4.80321C34.3415 4.82675 34.2806 4.83885 34.219 4.83882ZM36.0938 4.83882C35.8347 4.83882 35.625 4.62917 35.625 4.37018V3.90143C35.625 3.83987 35.6371 3.77891 35.6607 3.72203C35.6842 3.66515 35.7187 3.61347 35.7623 3.56995C35.8058 3.52643 35.8575 3.49191 35.9144 3.46838C35.9713 3.44484 36.0322 3.43275 36.0938 3.4328C36.1553 3.43277 36.2163 3.44487 36.2732 3.46841C36.33 3.49195 36.3817 3.52647 36.4252 3.56999C36.4687 3.61351 36.5033 3.66519 36.5268 3.72206C36.5503 3.77893 36.5624 3.83988 36.5624 3.90143V4.37018C36.5624 4.43173 36.5503 4.49269 36.5268 4.54956C36.5033 4.60643 36.4687 4.6581 36.4252 4.70163C36.3817 4.74515 36.33 4.77967 36.2732 4.80321C36.2163 4.82675 36.1553 4.83885 36.0938 4.83882ZM37.9686 4.83882C37.7094 4.83882 37.4998 4.62917 37.4998 4.37018V3.90143C37.4998 3.83987 37.5119 3.77891 37.5354 3.72203C37.559 3.66515 37.5935 3.61347 37.637 3.56995C37.6806 3.52643 37.7323 3.49191 37.7891 3.46838C37.846 3.44484 37.907 3.43275 37.9686 3.4328C38.0301 3.43277 38.0911 3.44487 38.1479 3.46841C38.2048 3.49195 38.2565 3.52647 38.3 3.56999C38.3435 3.61351 38.378 3.66519 38.4016 3.72206C38.4251 3.77893 38.4372 3.83988 38.4372 3.90143V4.37018C38.4372 4.43173 38.4251 4.49269 38.4016 4.54956C38.378 4.60643 38.3435 4.6581 38.3 4.70163C38.2565 4.74515 38.2048 4.77967 38.1479 4.80321C38.0911 4.82675 38.0301 4.83885 37.9686 4.83882ZM39.8432 4.83882C39.7816 4.83885 39.7207 4.82675 39.6638 4.80321C39.607 4.77967 39.5553 4.74515 39.5118 4.70163C39.4682 4.6581 39.4337 4.60643 39.4102 4.54956C39.3866 4.49269 39.3745 4.43173 39.3746 4.37018V3.90143C39.3745 3.83988 39.3866 3.77893 39.4102 3.72206C39.4337 3.66519 39.4682 3.61351 39.5118 3.56999C39.5553 3.52647 39.607 3.49195 39.6638 3.46841C39.7207 3.44487 39.7816 3.43277 39.8432 3.4328C40.1023 3.4328 40.3119 3.64233 40.3119 3.90143V4.37018C40.312 4.43174 40.2999 4.49271 40.2763 4.54958C40.2528 4.60646 40.2183 4.65814 40.1747 4.70167C40.1312 4.74519 40.0795 4.77971 40.0226 4.80324C39.9657 4.82677 39.9048 4.83886 39.8432 4.83882ZM9.84718 28.742C9.7702 28.7422 9.6944 28.7231 9.62664 28.6866C9.5517 28.6467 9.48902 28.5872 9.44532 28.5144C9.40162 28.4416 9.37854 28.3583 9.37855 28.2734V26.8673H8.9098C7.61816 26.8673 6.56628 25.8158 6.56628 24.5239V15.15C6.56628 13.858 7.61816 12.8066 8.9098 12.8066H20.1583C20.2198 12.8066 20.2808 12.8187 20.3377 12.8422C20.3946 12.8658 20.4462 12.9003 20.4898 12.9439C20.5333 12.9874 20.5678 13.0391 20.5913 13.096C20.6149 13.1529 20.627 13.2138 20.6269 13.2754C20.6269 13.3369 20.6148 13.3979 20.5913 13.4548C20.5678 13.5116 20.5332 13.5633 20.4897 13.6068C20.4462 13.6503 20.3945 13.6849 20.3377 13.7084C20.2808 13.7319 20.2198 13.744 20.1583 13.744H8.9098C8.13437 13.744 7.50367 14.3747 7.50367 15.15V24.5239C7.50367 25.2992 8.13437 25.9299 8.9098 25.9299H9.84718C10.1062 25.9299 10.3159 26.1395 10.3159 26.3986V27.3973L12.3994 26.0085C12.4764 25.9572 12.5668 25.9298 12.6593 25.9298H20.1584C20.22 25.9297 20.2809 25.9418 20.3378 25.9654C20.3947 25.9889 20.4464 26.0235 20.4899 26.067C20.5334 26.1105 20.5679 26.1622 20.5914 26.2191C20.615 26.276 20.6271 26.3369 20.627 26.3985C20.6271 26.4601 20.615 26.521 20.5914 26.5779C20.5679 26.6347 20.5334 26.6864 20.4898 26.7299C20.4463 26.7735 20.3946 26.808 20.3378 26.8315C20.2809 26.8551 20.2199 26.8672 20.1584 26.8671H12.8012L10.1071 28.6633C10.0302 28.7147 9.93972 28.7421 9.84718 28.742Z" fill="black"/>
<path d="M20.1585 18.4309H11.722C11.4631 18.4309 11.2533 18.2213 11.2533 17.9622C11.2533 17.9006 11.2654 17.8396 11.2889 17.7828C11.3125 17.7259 11.347 17.6742 11.3905 17.6307C11.4341 17.5872 11.4858 17.5526 11.5426 17.5291C11.5995 17.5056 11.6605 17.4935 11.722 17.4935H20.1585C20.22 17.4935 20.281 17.5056 20.3379 17.5291C20.3947 17.5527 20.4464 17.5872 20.4899 17.6307C20.5335 17.6742 20.568 17.7259 20.5915 17.7828C20.6151 17.8397 20.6272 17.9006 20.6271 17.9622C20.6271 18.2213 20.4175 18.4309 20.1585 18.4309Z" fill="black"/>
<path d="M20.1585 22.1803H11.722C11.4631 22.1803 11.2533 21.9708 11.2533 21.7117C11.2533 21.4526 11.4629 21.2429 11.722 21.2429H20.1585C20.4175 21.2429 20.6271 21.4526 20.6271 21.7117C20.6271 21.9708 20.4175 22.1803 20.1585 22.1803Z" fill="black"/>
</g>
<defs>
<clipPath id="clip0_29_78">
<rect width="60" height="60" fill="white" transform="translate(0.00476074 0.61676)"/>
</clipPath>
</defs>
</svg>
