<svg width="60" height="61" viewBox="0 0 60 61" fill="none" xmlns="http://www.w3.org/2000/svg">
<g clip-path="url(#clip0_29_2)">
<path d="M1.51953 39.919V16.9072C1.51953 16.845 1.54416 16.7853 1.58804 16.7412C1.63192 16.6971 1.69148 16.6721 1.75369 16.6718C6.53237 16.6718 37.3453 16.6693 42.7806 16.6681C42.8115 16.6681 42.842 16.6742 42.8705 16.6861C42.899 16.6979 42.9249 16.7153 42.9466 16.7371C42.9684 16.759 42.9856 16.785 42.9973 16.8135C43.009 16.8421 43.0149 16.8726 43.0148 16.9035C43.0136 19.1584 43.0024 35.2723 42.9987 39.9172L1.51953 39.919Z" fill="white"/>
<path d="M1.76731 39.919V17.0413C1.76731 17.0129 1.76484 16.9834 1.76731 16.9552C1.77301 16.8909 1.74055 16.9304 1.78627 16.9196C1.92221 16.9059 2.05919 16.9059 2.19513 16.9196H3.30201L6.44736 16.9194H10.622H15.5056H20.7649H26.1391H31.2736H35.9067H39.6904H42.3507H42.6909C42.7335 16.9194 42.7759 16.9267 42.7674 16.9128C42.7881 16.9461 42.7674 17.0605 42.7674 17.1006V17.3215C42.7674 17.7695 42.7671 18.2175 42.7665 18.6655C42.7656 20.067 42.7646 21.4684 42.7636 22.8698L42.7599 28.2717C42.7587 30.1119 42.7574 31.9521 42.7561 33.7923L42.7527 38.3516C42.7527 38.8736 42.7523 39.3955 42.7515 39.9174C42.7515 40.2363 43.2471 40.2368 43.2471 39.9174C43.2481 38.6547 43.249 37.392 43.2499 36.1293L43.2537 30.8708C43.255 28.9916 43.2563 27.1125 43.2576 25.2335L43.261 20.31C43.2617 19.2705 43.2624 18.2311 43.2631 17.1918C43.2631 16.9516 43.2903 16.6937 43.0782 16.5254C42.8992 16.3833 42.6378 16.4204 42.4216 16.4205H41.2607H37.9898H33.707H28.7297H23.3758H17.9863H12.8084H8.24906L4.56043 16.4239H2.08251C1.88427 16.4239 1.65308 16.3937 1.48235 16.5094C1.24559 16.6704 1.27173 16.9445 1.27173 17.1933V39.919C1.27173 40.238 1.76731 40.2384 1.76731 39.919Z" fill="#211715"/>
<path d="M44.2563 41.1477C44.2563 40.5396 44.2493 40.7822 44.2493 39.9167L0.262599 39.919C0.262599 40.5868 0.252563 40.0319 0.252563 41.1512H1.5106C1.508 41.3326 1.50515 41.6916 1.50515 42.2867C3.40188 42.2867 41.7883 42.2837 43.0038 42.2837C43.0038 41.8526 43.0003 41.5299 42.9982 41.1485L44.2563 41.1477Z" fill="white"/>
<path d="M44.5041 41.1478C44.5041 40.7374 44.4972 40.3272 44.4971 39.9167C44.4961 39.8513 44.4697 39.7888 44.4235 39.7425C44.3772 39.6963 44.3147 39.6699 44.2493 39.6689H34.5165H28.8815H22.7764H16.6584H10.9355H6.02165H0.262588C0.197159 39.6699 0.13467 39.6963 0.0884 39.7425C0.0421297 39.7888 0.015725 39.8513 0.0147963 39.9167C0.0147963 40.3276 0.00488464 40.738 0.00476074 41.1489C0.0057206 41.2143 0.0321353 41.2768 0.0783989 41.323C0.124663 41.3693 0.187133 41.3957 0.252553 41.3967H1.51059L1.2628 41.1489C1.25747 41.5274 1.25735 41.9059 1.25735 42.2844C1.25828 42.3498 1.28468 42.4123 1.33095 42.4586C1.37722 42.5048 1.43971 42.5313 1.50514 42.5322H3.03935H6.23859H10.7158H16.0265H21.8001H27.6045H33.0063H37.62H41.0474H43.0036C43.069 42.5312 43.1315 42.5048 43.1778 42.4585C43.224 42.4123 43.2505 42.3498 43.2514 42.2844C43.2514 41.906 43.2479 41.5275 43.2458 41.1491L42.998 41.3969H44.2562C44.575 41.3969 44.5756 40.9013 44.2562 40.9013H42.9982C42.9327 40.9022 42.8702 40.9286 42.824 40.9749C42.7777 41.0212 42.7513 41.0837 42.7504 41.1491C42.7525 41.5275 42.7557 41.906 42.756 42.2844L43.0037 42.0366H38.5913H34.2163H28.9687H23.219H17.3999H11.9446H7.23868H3.67939H1.50514L1.75293 42.2844C1.75293 41.9059 1.75293 41.5274 1.75839 41.1489C1.75749 41.0834 1.73109 41.0209 1.68482 40.9747C1.63854 40.9284 1.57603 40.902 1.51059 40.9011H0.252553L0.500345 41.1489C0.500345 40.738 0.510133 40.3276 0.51038 39.9167L0.262588 40.1645H5.0114H9.6409H15.223H21.3078H27.4382H33.2059H38.1976H44.2493L44.0015 39.9167C44.0015 40.3272 44.0083 40.7374 44.0085 41.1478C44.0087 41.4667 44.5043 41.4678 44.5041 41.1478Z" fill="#211715"/>
<path d="M40.4399 40.9262C39.2938 40.9262 38.1478 40.9283 37.0019 40.9324C35.4019 40.9358 33.8019 40.9391 32.2019 40.9423C31.61 40.9434 31.0181 40.9441 30.4262 40.9445C30.1074 40.9445 30.1068 41.4401 30.4262 41.4401C31.6832 41.4401 32.9401 41.4381 34.197 41.4339C35.7663 41.4307 37.3353 41.4274 38.9039 41.424C39.416 41.423 39.9281 41.4223 40.4402 41.4218C40.759 41.4218 40.7596 40.9262 40.4402 40.9262H40.4399Z" fill="#211715"/>
<path d="M28.7933 40.9262C28.4759 40.9262 28.1584 40.9262 27.8408 40.9262L25.8766 40.9274L23.1269 40.9296L19.8599 40.9319L16.2904 40.9345L12.6774 40.9372L9.28107 40.9397L6.315 40.9418C5.55692 40.9423 4.79884 40.9428 4.04076 40.9433C3.59622 40.9433 3.15168 40.9436 2.70715 40.9441H2.54943C2.23052 40.9441 2.23002 41.4396 2.54943 41.4396C2.90815 41.4396 3.26678 41.4396 3.62534 41.4396L5.6861 41.4384L8.50573 41.4364L11.8159 41.4339L15.4022 41.4313L19.0049 41.4286L22.3646 41.4261L25.2671 41.424L27.4512 41.4225C27.8569 41.4225 28.2626 41.4223 28.6683 41.4218H28.7933C29.1122 41.4218 29.1127 40.9262 28.7933 40.9262Z" fill="#211715"/>
<path d="M14.2427 39.6536C14.2427 39.1302 14.238 38.8606 14.238 38.5487C13.5394 38.5487 11.1723 38.5478 10.2035 38.5478C10.2035 38.9526 10.2002 39.3679 10.2002 39.6522C10.7758 39.6522 13.3446 39.6536 14.2427 39.6536Z" fill="#7A7473"/>
<path d="M10.2033 38.7173C10.2033 38.6655 10.2033 38.6097 10.2033 38.5489H11.4528V39.6534H10.2014C10.2002 39.4111 10.2025 39.009 10.2033 38.7173Z" fill="white"/>
<path d="M14.4905 39.6536C14.4905 39.2853 14.486 38.917 14.4857 38.5486C14.4848 38.4832 14.4584 38.4207 14.4121 38.3745C14.3659 38.3282 14.3034 38.3018 14.238 38.3009C12.8932 38.3009 11.5484 38.3006 10.2035 38.3C10.1381 38.3009 10.0756 38.3273 10.0293 38.3736C9.98307 38.4199 9.95667 38.4824 9.95574 38.5478C9.95574 38.916 9.95264 39.2841 9.95239 39.6522C9.95335 39.7176 9.97977 39.7801 10.026 39.8263C10.0723 39.8726 10.1348 39.899 10.2002 39.9C11.5477 39.9 12.8952 39.9004 14.2427 39.9013C14.5616 39.9013 14.5621 39.4058 14.2427 39.4058C12.8952 39.4058 11.5477 39.4053 10.2002 39.4044L10.448 39.6522C10.448 39.2841 10.4512 38.916 10.4513 38.5478L10.2035 38.7956C11.5483 38.7956 12.8931 38.7959 14.238 38.7964L13.9902 38.5486C13.9902 38.917 13.9947 39.2853 13.9949 39.6536C13.995 39.9725 14.4906 39.973 14.4905 39.6536Z" fill="#211715"/>
<path d="M11.205 38.5649V39.6526C11.205 39.7183 11.2311 39.7813 11.2775 39.8278C11.324 39.8742 11.387 39.9003 11.4527 39.9003C11.5185 39.9003 11.5815 39.8742 11.628 39.8278C11.6744 39.7813 11.7005 39.7183 11.7005 39.6526V38.5649C11.7005 38.4992 11.6744 38.4361 11.628 38.3897C11.5815 38.3432 11.5185 38.3171 11.4527 38.3171C11.387 38.3171 11.324 38.3432 11.2775 38.3897C11.2311 38.4361 11.205 38.4992 11.205 38.5649Z" fill="#211715"/>
<path d="M19.3573 39.6536C19.3573 39.1302 19.3526 38.8606 19.3526 38.5487C18.6539 38.5487 16.2869 38.5478 15.318 38.5478C15.318 38.9526 15.3148 39.3679 15.3148 39.6522C15.8906 39.6522 18.4594 39.6536 19.3573 39.6536Z" fill="#F2635F"/>
<path d="M15.3183 38.7173C15.3183 38.6655 15.3183 38.6097 15.3183 38.5489H16.567V39.6534H15.3156C15.3151 39.4111 15.3175 39.009 15.3183 38.7173Z" fill="white"/>
<path d="M19.6051 39.6536C19.6051 39.2853 19.6006 38.917 19.6004 38.5486C19.5994 38.4832 19.573 38.4208 19.5267 38.3745C19.4805 38.3282 19.418 38.3018 19.3526 38.3009C18.0077 38.3009 16.6629 38.3006 15.318 38.3C15.2526 38.3009 15.1901 38.3274 15.1439 38.3736C15.0976 38.4199 15.0712 38.4824 15.0702 38.5478C15.0702 38.916 15.0671 39.2841 15.067 39.6522C15.0679 39.7176 15.0944 39.7801 15.1406 39.8264C15.1869 39.8726 15.2494 39.8991 15.3148 39.9C16.6623 39.9 18.0098 39.9004 19.3573 39.9013C19.6762 39.9013 19.6767 39.4058 19.3573 39.4058C18.0098 39.4058 16.6623 39.4053 15.3148 39.4044L15.5626 39.6522C15.5626 39.2841 15.5657 38.916 15.5658 38.5478L15.318 38.7956C16.663 38.7956 18.0078 38.7959 19.3526 38.7964L19.1048 38.5486C19.1048 38.917 19.1094 39.2853 19.1095 39.6536C19.1095 39.9725 19.6051 39.973 19.6051 39.6536Z" fill="#211715"/>
<path d="M16.3191 38.5649V39.6526C16.3191 39.7183 16.3452 39.7813 16.3917 39.8278C16.4381 39.8742 16.5012 39.9003 16.5669 39.9003C16.6326 39.9003 16.6956 39.8742 16.7421 39.8278C16.7886 39.7813 16.8147 39.7183 16.8147 39.6526V38.5649C16.8147 38.4992 16.7886 38.4361 16.7421 38.3897C16.6956 38.3432 16.6326 38.3171 16.5669 38.3171C16.5012 38.3171 16.4381 38.3432 16.3917 38.3897C16.3452 38.4361 16.3191 38.4992 16.3191 38.5649Z" fill="#211715"/>
<path d="M4.49548 39.6536C4.49548 38.8871 4.50242 39.0154 4.50242 38.5579C5.52407 38.5579 7.20571 38.5567 8.62246 38.5567C8.62246 39.1494 8.62729 39.235 8.62729 39.6516C7.78542 39.6516 5.80891 39.6536 4.49548 39.6536Z" fill="white"/>
<path d="M4.19128 38.6174C4.19128 37.838 4.19921 37.9683 4.19921 37.5033C5.37127 37.5033 7.30058 37.5021 8.92585 37.5021C8.92585 38.1047 8.93142 38.1918 8.93142 38.6153C7.96578 38.6153 5.69811 38.6174 4.19128 38.6174Z" fill="#5394CF"/>
<path d="M4.74326 39.6535C4.74326 39.2883 4.75008 38.9232 4.7502 38.5579L4.50241 38.8057C5.87584 38.8057 7.24919 38.8053 8.62245 38.8045L8.37466 38.5567C8.37466 38.9217 8.37924 39.2866 8.37949 39.6516L8.62728 39.4038C7.25005 39.4038 5.87278 39.4044 4.49547 39.4058C4.17669 39.4058 4.17607 39.9013 4.49547 39.9013C5.87278 39.9013 7.25005 39.9007 8.62728 39.8994C8.69271 39.8984 8.7552 39.872 8.80147 39.8257C8.84774 39.7795 8.87415 39.717 8.87507 39.6516C8.87507 39.2866 8.87037 38.9217 8.87024 38.5567C8.86928 38.4913 8.84287 38.4288 8.7966 38.3825C8.75034 38.3363 8.68787 38.3099 8.62245 38.3089C7.2491 38.3089 5.87576 38.3093 4.50241 38.3101C4.43699 38.3111 4.37452 38.3375 4.32826 38.3838C4.28199 38.43 4.25558 38.4925 4.25462 38.5579C4.25462 38.9232 4.2478 39.2889 4.24768 39.6535C4.24768 39.9725 4.74326 39.9729 4.74326 39.6535Z" fill="#211715"/>
<path d="M4.43907 38.6174C4.43907 38.2457 4.44687 37.8746 4.44699 37.5033L4.1992 37.7511C5.77483 37.7511 7.35037 37.7507 8.92584 37.7499L8.67804 37.5021C8.67804 37.8738 8.6835 38.2442 8.68362 38.6153L8.93141 38.3675C7.35141 38.3675 5.77136 38.3682 4.19127 38.3696C3.87237 38.3696 3.87187 38.8652 4.19127 38.8652C5.77136 38.8652 7.35141 38.8645 8.93141 38.8631C8.99684 38.8621 9.05933 38.8357 9.1056 38.7895C9.15187 38.7432 9.17828 38.6807 9.1792 38.6153C9.1792 38.2436 9.17375 37.8731 9.17363 37.5021C9.17273 37.4366 9.14634 37.3741 9.10006 37.3278C9.05378 37.2816 8.99128 37.2552 8.92584 37.2543C7.35037 37.2543 5.77483 37.2547 4.1992 37.2555C4.13378 37.2565 4.07131 37.2829 4.02505 37.3291C3.97879 37.3754 3.95237 37.4379 3.95141 37.5033C3.95141 37.875 3.94361 38.2459 3.94348 38.6174C3.94336 38.9362 4.43894 38.9368 4.43907 38.6174Z" fill="#211715"/>
<path d="M5.9939 38.5721C5.9939 37.6995 5.99575 37.8454 5.99575 37.3248C6.27638 37.3248 6.73839 37.3233 7.12767 37.3233C7.12767 37.9982 7.12903 38.0957 7.12903 38.5698C6.89772 38.5698 6.35468 38.5721 5.9939 38.5721Z" fill="white"/>
<path d="M6.24168 38.572C6.24168 38.1562 6.24354 37.7406 6.24354 37.3248L5.99574 37.5726C6.37301 37.5726 6.7504 37.5712 7.12766 37.5711L6.87987 37.3233C6.87987 37.7388 6.88111 38.1543 6.88123 38.5698L7.12902 38.322C6.75064 38.322 6.37226 38.3242 5.99389 38.3242C5.92817 38.3242 5.86514 38.3504 5.81867 38.3968C5.7722 38.4433 5.74609 38.5063 5.74609 38.572C5.74609 38.6378 5.7722 38.7008 5.81867 38.7473C5.86514 38.7937 5.92817 38.8198 5.99389 38.8198C6.37226 38.8198 6.75064 38.8176 7.12902 38.8176C7.19444 38.8166 7.25691 38.7902 7.30318 38.744C7.34944 38.6977 7.37585 38.6352 7.37681 38.5698C7.37681 38.1543 7.37545 37.7388 7.37545 37.3233C7.37452 37.2579 7.34812 37.1954 7.30185 37.1491C7.25558 37.1028 7.19309 37.0764 7.12766 37.0755C6.7504 37.0755 6.37301 37.077 5.99574 37.077C5.93031 37.0779 5.86783 37.1043 5.82156 37.1506C5.77529 37.1969 5.74888 37.2594 5.74795 37.3248C5.74795 37.7406 5.74609 38.1562 5.74609 38.572C5.74609 38.6378 5.7722 38.7008 5.81867 38.7473C5.86514 38.7937 5.92817 38.8198 5.99389 38.8198C6.0596 38.8198 6.12263 38.7937 6.1691 38.7473C6.21557 38.7008 6.24168 38.6378 6.24168 38.572Z" fill="#211715"/>
<path d="M53.2197 31.3544C53.2248 31.6311 53.2429 31.9401 53.3967 32.1801C53.5085 32.3443 53.6454 32.49 53.8023 32.6118C53.9587 32.7395 54.1224 32.8581 54.2925 32.967C54.3769 33.0255 54.4653 33.078 54.5571 33.124C54.6142 33.1556 54.6813 33.1639 54.7444 33.1474C54.8076 33.1308 54.8619 33.0906 54.8962 33.035C54.9285 32.9781 54.9374 32.9108 54.9207 32.8474C54.9041 32.7841 54.8634 32.7297 54.8072 32.696C54.7245 32.6546 54.6448 32.6077 54.5685 32.5554C54.5028 32.5141 54.438 32.4711 54.3741 32.4264C54.3336 32.3983 54.2933 32.3694 54.2536 32.3397L54.2081 32.3054C54.2592 32.3438 54.1917 32.2924 54.1825 32.2852C54.1085 32.2264 54.0375 32.1639 53.9698 32.098C53.9403 32.0689 53.9117 32.039 53.8843 32.0079C53.8696 31.9911 53.8554 31.9736 53.8412 31.9563C53.8634 31.9831 53.861 31.9829 53.8412 31.9551C53.8315 31.9413 53.7752 31.8701 53.7818 31.854L53.796 31.8884C53.7895 31.8725 53.7836 31.8563 53.7781 31.84C53.7669 31.8066 53.7577 31.7724 53.7498 31.7379C53.7373 31.6874 53.7292 31.636 53.7256 31.5841C53.7188 31.5075 53.7162 31.4308 53.7148 31.354C53.7148 31.2883 53.6887 31.2252 53.6422 31.1788C53.5958 31.1323 53.5327 31.1062 53.467 31.1062C53.4013 31.1062 53.3383 31.1323 53.2918 31.1788C53.2453 31.2252 53.2192 31.2883 53.2192 31.354L53.2197 31.3544Z" fill="#211715"/>
<path d="M49.1791 33.124C49.2681 33.079 49.3533 33.0269 49.4339 32.9683C49.5937 32.8623 49.7456 32.7448 49.8883 32.6166C50.032 32.495 50.1512 32.3471 50.2397 32.1809C50.3454 31.9195 50.3923 31.638 50.377 31.3564C50.377 31.2907 50.3509 31.2276 50.3044 31.1812C50.2579 31.1347 50.1949 31.1086 50.1292 31.1086C50.0635 31.1086 50.0004 31.1347 49.954 31.1812C49.9075 31.2276 49.8814 31.2907 49.8814 31.3564C49.8825 31.4758 49.8768 31.5952 49.8644 31.7141C49.8607 31.7411 49.845 31.8192 49.8323 31.8642C49.8253 31.889 49.8165 31.9129 49.8087 31.9373C49.7877 32.0017 49.8327 31.8928 49.7971 31.9599C49.781 31.9901 49.763 32.0194 49.7432 32.0475C49.7364 32.0573 49.7295 32.0669 49.7223 32.0766C49.7406 32.053 49.7442 32.0485 49.7328 32.0626C49.7177 32.0783 49.7047 32.0967 49.6902 32.113C49.6332 32.1767 49.5724 32.2368 49.508 32.2929C49.4756 32.3216 49.4424 32.3494 49.4088 32.3767C49.3993 32.3843 49.3414 32.4294 49.3895 32.3925C49.3744 32.4043 49.359 32.4158 49.3437 32.4272C49.2826 32.4727 49.2204 32.5164 49.1568 32.5583C49.0846 32.61 49.0084 32.6561 48.929 32.6961C48.8725 32.7294 48.8314 32.7838 48.8148 32.8473C48.7981 32.9108 48.8073 32.9782 48.8402 33.035C48.8745 33.0904 48.9289 33.1305 48.9919 33.1471C49.055 33.1636 49.122 33.1554 49.1791 33.124Z" fill="#211715"/>
<path d="M39.5915 32.9252C39.6084 32.8785 39.6342 32.8355 39.6673 32.7985C39.5634 32.5902 39.5293 32.4729 39.5527 32.3409C39.5711 32.0753 40.1323 31.9616 40.646 32.056C40.7197 32.0686 40.7916 32.09 40.8602 32.1197C40.8908 32.0121 40.9105 31.9455 40.9105 31.9455C40.9209 31.8792 40.9558 31.8191 41.0082 31.7772C41.0606 31.7353 41.1268 31.7145 41.1937 31.719C41.4901 31.7363 41.6383 32.1024 41.6992 32.3812C41.7441 32.5628 41.837 32.7291 41.9682 32.8624C42.107 33.0038 42.2342 33.1562 42.3485 33.3181C42.5409 33.6154 42.5736 34.6972 42.6592 35.7785C42.0945 36.0535 41.0204 36.4892 40.7683 36.5862L40.7425 36.5451L40.6829 36.4496C40.5814 36.2872 40.4557 36.1413 40.3101 36.0169C40.2219 35.9416 40.1269 35.8747 40.0356 35.8031C39.7135 35.5502 39.4401 35.2409 39.2288 34.8902C39.2288 34.8902 39.1833 34.8148 39.1091 34.692C38.9908 34.6035 38.91 34.4739 38.8826 34.3287C38.8673 34.1602 39.0865 33.9968 39.2841 34.0035L39.2294 33.901C39.1021 33.8102 39.1825 33.5611 39.2879 33.4456C39.3314 33.3976 39.3875 33.3627 39.4498 33.3451C39.5122 33.3275 39.5782 33.3277 39.6405 33.3458C39.6066 33.2697 39.5796 33.208 39.5796 33.208C39.5321 33.1698 39.5478 33.0356 39.5915 32.9252Z" fill="white"/>
<path d="M40.8096 36.57C41.1458 36.4383 42.2741 35.9778 42.7713 35.7225C42.8279 35.8363 42.9943 36.1871 43.0733 36.3519L43.1027 36.42C42.4697 36.7224 41.6337 37.1179 40.9884 37.3173L40.9612 37.2435C40.8814 37.0453 40.7567 36.6569 40.7311 36.6003C40.7472 36.5943 40.7739 36.584 40.8096 36.57Z" fill="white"/>
<path d="M55.2277 27.1694C55.2833 27.1213 55.3486 27.0856 55.4191 27.065C55.4897 27.0443 55.5639 27.0391 55.6366 27.0497C55.708 27.0599 55.7762 27.0859 55.8362 27.1258C55.8962 27.1658 55.9466 27.2186 55.9835 27.2805C56.0263 27.3661 56.0507 27.4597 56.055 27.5552C56.0862 27.929 56.014 28.3042 55.8464 28.6397C55.7674 28.8093 55.6528 28.9598 55.5102 29.081C55.4438 29.1444 55.358 29.1834 55.2666 29.1919C55.1752 29.2003 55.0837 29.1776 55.0068 29.1275C54.9756 29.2912 54.931 29.4521 54.8737 29.6086C54.7657 29.8969 54.2008 30.8406 53.4664 31.2899C53.4562 31.5152 53.4869 31.7404 53.5571 31.9547C53.7232 32.3657 54.6199 32.883 54.6817 32.91C54.6817 32.91 54.3337 35.144 51.7412 35.144C49.1487 35.144 49.0536 32.91 49.0536 32.91C49.1156 32.883 49.8714 32.4378 50.038 32.0266C50.1086 31.8117 50.1393 31.5857 50.1284 31.3597C49.7732 31.177 49.4596 30.9226 49.2076 30.6126C48.87 30.2029 48.631 29.7211 48.5091 29.2043C48.2976 29.2888 48.1399 29.1795 48.0163 29.0804C47.8737 28.9592 47.759 28.8086 47.68 28.6391C47.5123 28.3036 47.4402 27.9284 47.4715 27.5546C47.4758 27.4591 47.5001 27.3655 47.5428 27.2799C47.5798 27.218 47.6301 27.1651 47.6901 27.1252C47.7502 27.0853 47.8184 27.0593 47.8898 27.0491C47.9625 27.0385 48.0367 27.0437 48.1072 27.0644C48.1778 27.085 48.2431 27.1206 48.2986 27.1688C48.2986 27.1688 48.1995 24.2921 51.8024 24.2921C55.3922 24.2927 55.2277 27.1694 55.2277 27.1694Z" fill="white"/>
<path d="M48.2937 27.1485C48.4044 27.2625 48.4663 27.0288 48.5081 26.9379C48.5749 26.7924 48.6726 26.5804 48.7435 26.4374C48.7829 26.3588 48.8397 26.2434 48.8745 26.163C48.9113 26.0779 48.9504 25.994 48.9918 25.9115C49.075 25.7452 49.1672 25.5835 49.268 25.4272C49.3122 25.3488 49.3725 25.2805 49.4448 25.2269C49.6616 25.0845 49.9591 25.1994 50.2236 25.1794C50.5174 25.1574 50.7608 24.9677 51.0318 24.8598C51.4084 24.7096 51.9858 24.6701 52.3511 24.8433C52.5358 24.8528 52.708 24.8448 52.8754 24.8433C53.0628 24.8358 53.2505 24.844 53.4365 24.8681C53.6842 24.921 53.9178 25.026 54.1218 25.1762C54.3258 25.3264 54.4954 25.5182 54.6196 25.739C54.7998 26.035 54.9431 26.352 55.0461 26.6829C55.0793 26.8007 55.1059 26.9203 55.1258 27.0411C55.1322 27.0817 55.1368 27.1232 55.1405 27.164C55.1431 27.1917 55.1709 27.2011 55.2361 27.1573L55.2271 27.1697C55.2824 27.1217 55.3473 27.0861 55.4175 27.0654C55.4877 27.0446 55.5615 27.0391 55.634 27.0494C55.8896 26.2097 55.8199 25.1451 55.5721 24.5104C55.4011 24.0736 55.1393 23.5697 54.6089 23.2786L54.122 22.8478C53.9034 22.4039 53.4466 22.0238 52.8459 21.8093C52.2166 21.5846 50.3822 21.5464 49.7656 22.0797L49.1323 22.5127C48.4261 22.8348 47.9279 23.6064 47.7157 24.4015C47.497 25.2207 47.4952 26.4086 47.8024 27.0723C47.8863 27.0437 47.9762 27.0376 48.0632 27.0546C48.1502 27.0717 48.2311 27.1113 48.298 27.1694" fill="#7A7473"/>
<path d="M49.4948 32.1987C49.2169 32.3768 48.9623 32.5888 48.737 32.83L48.582 32.8945C47.8481 33.2008 46.9131 33.5859 46.197 33.9318C45.9767 34.0382 45.718 34.0881 45.5511 34.2671C45.3805 34.4501 45.2484 34.6657 45.1627 34.9009C44.6638 36.2034 44.5788 36.9472 44.0746 38.2568C43.7995 37.6141 43.5635 37.0287 43.2808 36.3351C42.5304 36.6931 41.3933 37.2456 40.672 37.402C41.0313 38.5532 41.3793 39.7124 41.8862 40.8653C42.2382 41.6662 42.6156 42.4874 43.4795 42.6263C44.0327 42.7154 44.6911 42.49 45.1128 42.1208C45.5345 41.7516 46.1962 40.9708 46.5128 40.5708L46.7332 40.5955C46.8677 41.3389 46.8477 41.9871 46.8477 42.7309C46.8477 43.3709 46.8098 43.8438 46.8091 44.5702L59.7562 44.5512C59.4416 40.2049 58.9494 36.336 58.5517 35.0104C58.4769 34.7125 58.3102 34.4457 58.0752 34.2478C57.8841 34.0951 57.5672 33.9941 57.3473 33.8877C56.6312 33.5418 55.6961 33.1567 54.9622 32.8504C54.9622 32.8504 54.9105 32.8289 54.8218 32.7915C54.6058 32.5659 54.3637 32.3668 54.1006 32.1986C53.7801 33.5729 53.2105 35.0563 52.7592 36.3932C52.4563 37.2902 52.1533 38.1872 51.8503 39.0843C51.4464 38.0827 51.1791 37.4084 50.8363 36.3932C50.3848 35.0563 49.8154 33.573 49.4948 32.1987Z" fill="#BDBDBD"/>
<path d="M39.7274 34.5667C39.7344 34.5763 39.7557 34.6183 39.7362 34.5758C39.7133 34.5253 39.7373 34.6143 39.7313 34.5585C39.7259 34.509 39.7304 34.5642 39.7302 34.5758C39.7302 34.5822 39.7289 34.589 39.7292 34.5955C39.7304 34.6248 39.7422 34.5346 39.7319 34.5759C39.7285 34.5892 39.7261 34.6024 39.7224 34.6155C39.7198 34.6246 39.6992 34.6782 39.7167 34.6365C39.7341 34.5947 39.7111 34.6449 39.7061 34.6532C39.7024 34.6581 39.6991 34.6634 39.6963 34.6689C39.6899 34.6888 39.7287 34.6344 39.7138 34.6468C39.708 34.6514 39.7029 34.6567 39.6986 34.6626C39.6884 34.6776 39.7233 34.6427 39.7257 34.6422C39.7104 34.6488 39.696 34.6573 39.6828 34.6676C39.662 34.6811 39.7076 34.6578 39.7076 34.6578C39.7003 34.66 39.6931 34.6627 39.6861 34.6657C39.6664 34.6724 39.6462 34.6778 39.6258 34.6818C39.5692 34.6933 39.6641 34.6818 39.6213 34.6824C39.6055 34.6824 39.59 34.6837 39.5743 34.6824C39.5641 34.6812 39.5538 34.6805 39.5436 34.6803C39.5436 34.6803 39.5963 34.6914 39.5722 34.6833C39.5522 34.6767 39.5308 34.6709 39.5102 34.6651C39.4819 34.6568 39.528 34.6708 39.5267 34.6725C39.5183 34.6691 39.51 34.6651 39.5019 34.6608C39.4826 34.6511 39.4635 34.6408 39.445 34.6298C39.4075 34.6075 39.3711 34.5833 39.3362 34.5573C39.3255 34.5508 39.3155 34.5432 39.3062 34.5348C39.3071 34.5359 39.3411 34.5626 39.3193 34.5448C39.3038 34.5324 39.2881 34.52 39.273 34.5064C39.2423 34.4794 39.215 34.4499 39.1869 34.4197C39.1552 34.3862 39.2082 34.453 39.1825 34.4152C39.1714 34.3986 39.1602 34.3821 39.1503 34.3647C39.1462 34.3573 39.1424 34.3498 39.1379 34.3423C39.1165 34.3038 39.1436 34.3497 39.1429 34.356C39.1396 34.3344 39.1337 34.3134 39.1252 34.2933C39.1268 34.2955 39.1262 34.3401 39.1291 34.3215C39.1298 34.3158 39.1298 34.31 39.1291 34.3043C39.1262 34.2649 39.1227 34.3734 39.1291 34.3194C39.1291 34.3137 39.1341 34.3085 39.1346 34.3028C39.1346 34.3044 39.1087 34.3509 39.1222 34.3349C39.1277 34.3283 39.1611 34.2767 39.1332 34.3136C39.1071 34.3484 39.1441 34.3056 39.1532 34.296C39.157 34.292 39.1656 34.2876 39.168 34.2828C39.1615 34.2951 39.1195 34.3156 39.1557 34.2932C39.1693 34.2846 39.1827 34.2759 39.1968 34.2684C39.2055 34.2651 39.2138 34.261 39.2216 34.256C39.2157 34.2621 39.1684 34.2748 39.201 34.2653C39.2187 34.26 39.2361 34.2539 39.2543 34.2499C39.2608 34.2484 39.268 34.2478 39.2745 34.246C39.2992 34.2391 39.2105 34.2476 39.2561 34.2496C39.2715 34.2503 39.2878 34.2508 39.3032 34.2507C39.3334 34.2507 39.2503 34.2347 39.2769 34.2478C39.2874 34.2515 39.2981 34.2545 39.3089 34.2569C39.3723 34.2737 39.4398 34.265 39.4968 34.2325C39.5538 34.2001 39.5958 34.1465 39.6137 34.0834C39.6297 34.02 39.6206 33.9529 39.5883 33.8961C39.5559 33.8393 39.5029 33.7972 39.4402 33.7786C39.3275 33.7485 39.2088 33.7484 39.096 33.7785C38.9832 33.8085 38.8802 33.8675 38.7973 33.9497C38.7051 34.037 38.6477 34.1548 38.6357 34.2813C38.6303 34.4072 38.6653 34.5316 38.7354 34.6364C38.8 34.7374 38.8814 34.8267 38.9761 34.9003C39.0705 34.9805 39.1746 35.0488 39.2859 35.1033C39.4101 35.1633 39.5491 35.1862 39.6861 35.1691C39.8168 35.1557 39.9405 35.1032 40.041 35.0184C40.2157 34.8626 40.3 34.5149 40.1554 34.3151C40.1213 34.2606 40.0687 34.2202 40.0073 34.2012C39.9598 34.1881 39.9094 34.1894 39.8627 34.2051C39.8159 34.2207 39.7749 34.2499 39.7448 34.289C39.7148 34.3281 39.6971 34.3753 39.694 34.4245C39.6909 34.4737 39.7025 34.5227 39.7274 34.5652V34.5667Z" fill="#211715"/>
<path d="M39.9053 33.1867C39.7504 33.0978 39.5685 33.0684 39.3935 33.1039C39.2458 33.1442 39.1187 33.2384 39.0371 33.3679C38.9557 33.488 38.9139 33.6306 38.9175 33.7757C38.9198 33.8545 38.9434 33.9312 38.9857 33.9977C39.0172 34.0442 39.0576 34.084 39.1044 34.115C39.1174 34.1248 39.1307 34.1341 39.1437 34.1439C39.1082 34.1173 39.1685 34.1645 39.1759 34.1699C39.3528 34.3133 39.54 34.4425 39.7233 34.5778C39.7963 34.6356 39.8749 34.686 39.9578 34.7284C40.0962 34.7907 40.2526 34.8004 40.3976 34.7557C40.486 34.7323 40.5675 34.6882 40.6355 34.6271C40.7035 34.566 40.756 34.4896 40.7887 34.4042C40.8229 34.3122 40.8339 34.2132 40.8207 34.116C40.8076 34.0187 40.7706 33.9262 40.7132 33.8467C40.679 33.791 40.6247 33.7507 40.5616 33.7341C40.4984 33.7176 40.4313 33.726 40.3742 33.7577C40.318 33.7914 40.2773 33.8458 40.2606 33.9091C40.244 33.9725 40.2528 34.0399 40.2853 34.0968C40.3041 34.1218 40.3202 34.1486 40.3333 34.177C40.3284 34.1655 40.3209 34.1367 40.3296 34.177C40.3383 34.2172 40.3296 34.1688 40.3307 34.1687C40.3318 34.1685 40.3318 34.2573 40.3333 34.2083C40.3346 34.163 40.3281 34.2571 40.317 34.2579C40.3114 34.2579 40.3489 34.2022 40.3216 34.2419C40.3166 34.2479 40.3124 34.2544 40.3092 34.2615C40.3012 34.29 40.3427 34.2243 40.3216 34.2467C40.3004 34.2692 40.3193 34.2591 40.3178 34.2543L40.3302 34.2451C40.3235 34.2499 40.3167 34.2545 40.3095 34.2587C40.3024 34.263 40.2947 34.2669 40.2875 34.2711C40.2475 34.2952 40.2942 34.2639 40.299 34.267C40.2847 34.2705 40.2705 34.275 40.2568 34.2803C40.2454 34.2833 40.2335 34.285 40.2221 34.2882C40.1887 34.2974 40.2698 34.286 40.2356 34.2866C40.216 34.2866 40.1959 34.2866 40.1762 34.2879C40.1244 34.2895 40.2264 34.2879 40.1792 34.2879C40.1735 34.2879 40.1676 34.2822 40.1621 34.2818C40.1721 34.2818 40.2241 34.3121 40.1876 34.2913C40.1246 34.2551 40.0634 34.2157 40.0044 34.1733C39.8859 34.0874 39.767 34.002 39.6479 33.9173C39.6425 33.9133 39.6058 33.8862 39.6296 33.9042C39.6534 33.9221 39.6172 33.8942 39.6119 33.89C39.5918 33.8739 39.572 33.8574 39.552 33.8412C39.5285 33.822 39.5048 33.8028 39.4809 33.784C39.457 33.7651 39.4352 33.7483 39.4123 33.7308C39.4061 33.7261 39.3578 33.6837 39.3835 33.7098C39.4134 33.7399 39.3605 33.6763 39.3943 33.7222C39.4165 33.7523 39.4028 33.7323 39.3987 33.7249C39.4249 33.7731 39.4154 33.7649 39.4093 33.7454C39.3969 33.7057 39.4156 33.7645 39.4119 33.7682C39.4125 33.7581 39.4125 33.748 39.4119 33.7379C39.4106 33.7007 39.4233 33.7532 39.4086 33.7565C39.4151 33.7354 39.4205 33.714 39.4248 33.6924C39.4273 33.6814 39.4311 33.6708 39.4362 33.6607C39.4229 33.6914 39.4202 33.6979 39.4283 33.6816C39.4307 33.6766 39.4331 33.6716 39.4357 33.6668C39.4494 33.6469 39.4618 33.6262 39.4729 33.6048C39.4752 33.61 39.4317 33.6487 39.4622 33.6204C39.472 33.612 39.4811 33.6029 39.4897 33.5933C39.5083 33.5705 39.4485 33.6135 39.4761 33.6037C39.4877 33.598 39.4988 33.5914 39.5093 33.5839C39.5418 33.5639 39.4977 33.5994 39.4934 33.5903C39.4934 33.5903 39.5219 33.582 39.5243 33.5813C39.5643 33.5679 39.5155 33.5856 39.5074 33.5821C39.522 33.5834 39.5366 33.583 39.5511 33.581C39.5607 33.581 39.598 33.588 39.5634 33.581C39.525 33.5731 39.5808 33.5864 39.5882 33.5885C39.6019 33.5922 39.615 33.5968 39.6285 33.6009C39.5866 33.5867 39.6417 33.6075 39.6533 33.6132C39.71 33.6464 39.7776 33.6557 39.8412 33.639C39.9048 33.6223 39.9591 33.581 39.9922 33.5243C40.0254 33.4675 40.0347 33.3999 40.018 33.3364C40.0013 33.2728 39.96 33.2185 39.9033 33.1853L39.9053 33.1867Z" fill="#211715"/>
<path d="M40.5045 33.6612C40.3042 33.4988 40.1096 33.3298 39.9128 33.1634C39.8756 33.1322 39.8384 33.1015 39.8013 33.0705C39.7908 33.0609 39.7797 33.0519 39.7682 33.0436C39.7464 33.0293 39.7493 33.0106 39.7817 33.0695C39.8156 33.1314 39.7989 33.119 39.7948 33.0998C39.8099 33.1733 39.7984 33.1384 39.7984 33.1146C39.7998 33.1048 39.8003 33.095 39.7999 33.0851C39.8135 33.1067 39.7875 33.1381 39.7999 33.0953C39.8065 33.0705 39.8123 33.0457 39.8201 33.0209C39.8227 33.0097 39.8269 32.9988 39.8325 32.9887C39.8099 33.0125 39.8154 33.0234 39.8281 33.0022C39.836 32.9916 39.8425 32.9802 39.8477 32.9681C39.8582 32.9521 39.8523 32.9591 39.83 32.989C39.8348 32.9829 39.8399 32.9773 39.8455 32.972C39.8524 32.9657 39.8838 32.9443 39.8561 32.9608C39.8228 32.9809 39.8768 32.9514 39.8786 32.9504C39.8705 32.9553 39.829 32.9655 39.8716 32.9541C39.884 32.9508 39.8964 32.9477 39.9088 32.9445C39.9598 32.9311 39.9005 32.9445 39.8996 32.9455C39.9064 32.9396 39.9383 32.9446 39.9477 32.9455H39.9574C39.9857 32.9482 39.983 32.9478 39.9489 32.9444C39.9593 32.9394 39.9953 32.9567 40.0048 32.9597C39.9942 32.9566 39.9553 32.9341 40.0033 32.9597C40.0175 32.9673 40.0318 32.9745 40.0459 32.9821C40.0767 32.9986 40.107 33.016 40.1369 33.0339C40.1961 33.0698 40.2535 33.1086 40.3089 33.1503C40.2688 33.1202 40.3289 33.1674 40.3405 33.1772C40.367 33.1996 40.3927 33.2227 40.418 33.2465C40.4642 33.29 40.5089 33.3354 40.5513 33.3828C40.5628 33.3952 40.5744 33.409 40.5855 33.4223C40.5944 33.433 40.6203 33.4705 40.5896 33.4267C40.6043 33.4477 40.6191 33.4684 40.6325 33.4904C40.6476 33.5151 40.6613 33.5408 40.674 33.5671C40.6773 33.5739 40.6942 33.6128 40.6823 33.584C40.6704 33.5553 40.6936 33.6166 40.6958 33.6226C40.7144 33.6721 40.6968 33.6148 40.6981 33.6152C40.7003 33.6327 40.7 33.6503 40.6971 33.6677C40.6962 33.6689 40.7144 33.6057 40.6963 33.6546L40.6913 33.6721C40.682 33.6979 40.6838 33.6953 40.6963 33.6643C40.6944 33.6876 40.6331 33.751 40.6756 33.7076C40.6672 33.7163 40.6597 33.7259 40.6508 33.7344C40.6444 33.7409 40.6378 33.7468 40.6309 33.7528C40.617 33.7647 40.622 33.7605 40.6459 33.7404C40.6459 33.7436 40.6211 33.7551 40.6159 33.7577C40.6469 33.7457 40.6487 33.7438 40.6212 33.7522L40.6486 33.7476C40.5947 33.7571 40.659 33.7493 40.6569 33.7503C40.6436 33.7569 40.596 33.7271 40.6415 33.7491C40.6086 33.7329 40.5771 33.714 40.5472 33.6927C40.5405 33.688 40.5068 33.6631 40.5348 33.6838C40.5628 33.7045 40.5114 33.6646 40.5063 33.6605C40.4591 33.6154 40.3964 33.5903 40.3311 33.5903C40.2658 33.5903 40.2031 33.6154 40.1558 33.6605C40.11 33.7073 40.0844 33.7702 40.0844 33.8357C40.0844 33.9011 40.11 33.964 40.1558 34.0108C40.3034 34.1304 40.4667 34.2544 40.6683 34.2419C40.7693 34.2309 40.8655 34.1931 40.947 34.1324C41.0284 34.0718 41.0923 33.9905 41.1319 33.897C41.1747 33.8092 41.1959 33.7124 41.1938 33.6148C41.1834 33.5068 41.1506 33.4022 41.0977 33.3075C41.0165 33.158 40.9103 33.0236 40.7836 32.9102C40.5234 32.6606 40.1581 32.3851 39.7772 32.466C39.6822 32.4887 39.5943 32.5349 39.5218 32.6003C39.4492 32.6658 39.3942 32.7484 39.3619 32.8406C39.3253 32.9148 39.3058 32.9963 39.3046 33.079C39.3035 33.1617 39.3208 33.2436 39.3554 33.3188C39.4064 33.3857 39.468 33.4438 39.5377 33.4909C39.5967 33.5404 39.6552 33.5906 39.7137 33.6408C39.8596 33.7658 40.0064 33.8898 40.1557 34.0108C40.2029 34.0559 40.2657 34.081 40.331 34.081C40.3962 34.081 40.459 34.0559 40.5062 34.0108C40.5515 33.9638 40.5767 33.901 40.5764 33.8357C40.5761 33.7704 40.5503 33.7078 40.5045 33.6612Z" fill="#211715"/>
<path d="M41.1495 32.0112C41.1556 31.9921 41.1505 31.9651 41.1831 31.9654C41.2308 31.9654 41.2754 32.015 41.302 32.0485C41.3819 32.1688 41.4358 32.3045 41.4603 32.4469C41.5669 32.8623 41.898 33.0788 42.12 33.4211C42.2428 33.6104 42.267 33.9619 42.2934 34.2264C42.3404 34.6997 42.3659 35.1751 42.4015 35.6495C42.4251 35.9656 42.921 35.9682 42.897 35.6495C42.8552 35.0906 42.831 34.5286 42.7608 33.9723C42.7431 33.7805 42.7077 33.5907 42.6548 33.4054C42.5828 33.2116 42.4706 33.0351 42.3258 32.8876C42.1834 32.7265 42.0102 32.5764 41.9502 32.3625C41.9079 32.1553 41.8284 31.9575 41.7156 31.7786C41.425 31.3792 40.8359 31.3602 40.672 31.8798C40.5759 32.1847 41.0542 32.3152 41.1499 32.0115L41.1495 32.0112Z" fill="#211715"/>
<path d="M40.5435 32.795C40.5859 33.0599 40.655 33.3199 40.7497 33.5709C40.8302 33.7939 40.8346 34.0373 40.7621 34.2631C40.7452 34.3265 40.754 34.394 40.7864 34.451C40.8189 34.508 40.8724 34.55 40.9355 34.5679C40.9989 34.584 41.066 34.5749 41.1229 34.5426C41.1797 34.5102 41.2218 34.4571 41.2403 34.3944C41.3282 34.1107 41.3329 33.8077 41.2539 33.5213C41.2168 33.3928 41.1682 33.2677 41.1271 33.1403C41.1067 33.0773 41.0874 33.0138 41.0713 32.9495C41.0645 32.9222 41.0581 32.8947 41.0525 32.8671C41.0486 32.8488 41.0452 32.83 41.0421 32.8119C41.0371 32.7807 41.0362 32.775 41.0393 32.7947C41.0378 32.7294 41.0112 32.6673 40.9651 32.6212C40.9189 32.575 40.8568 32.5484 40.7916 32.5469C40.6704 32.5522 40.5274 32.6568 40.5438 32.7947L40.5435 32.795Z" fill="#211715"/>
<path d="M40.6375 33.08C40.8782 33.0202 41.1644 32.9284 41.2941 32.6969C41.3473 32.5932 41.3667 32.4756 41.3496 32.3603C41.3326 32.2451 41.28 32.138 41.1992 32.0541C40.9832 31.8247 40.6147 31.7801 40.3171 31.7751C40.058 31.7709 39.7483 31.8033 39.5312 31.959C39.4645 32.0036 39.4082 32.0619 39.366 32.1301C39.3464 32.1635 39.3311 32.1993 39.3206 32.2366C39.3184 32.2449 39.3171 32.2532 39.3154 32.2614C39.3059 32.333 39.3037 32.3492 39.3088 32.31C39.314 32.2708 39.3118 32.287 39.3023 32.3587C39.2959 32.533 39.3374 32.7058 39.4223 32.8582C39.4557 32.9148 39.5101 32.9558 39.5736 32.9725C39.6371 32.9891 39.7046 32.98 39.7614 32.9471C39.8168 32.9126 39.8568 32.8583 39.8733 32.7953C39.8899 32.7322 39.8816 32.6652 39.8503 32.6081C39.8298 32.5678 39.814 32.5253 39.8033 32.4815C39.7981 32.462 39.7939 32.4423 39.7909 32.4224C39.8 32.477 39.7949 32.4179 39.7948 32.3954C39.7948 32.3894 39.7948 32.3571 39.7948 32.3915C39.7927 32.4549 39.7924 32.285 39.799 32.3603C39.8029 32.4044 39.8114 32.3355 39.7959 32.3735C39.7804 32.4116 39.792 32.3836 39.7982 32.3743C39.8121 32.3536 39.7795 32.3991 39.7793 32.3972C39.7785 32.3914 39.8164 32.3568 39.8204 32.3572C39.8264 32.3572 39.7733 32.382 39.8013 32.3731C39.8085 32.3696 39.8153 32.3654 39.8218 32.3607C39.839 32.3504 39.8577 32.3428 39.8749 32.3329C39.898 32.3195 39.8596 32.3395 39.8576 32.3401C39.87 32.3364 39.8814 32.3312 39.8934 32.3277C39.9188 32.3192 39.9445 32.3117 39.9704 32.3053C39.9912 32.3001 40.0118 32.2955 40.0324 32.2914C40.0468 32.2886 40.0613 32.2862 40.0758 32.2836C40.079 32.2836 40.1158 32.278 40.0881 32.2816C40.0605 32.2852 40.0978 32.2807 40.1005 32.2805C40.1161 32.2791 40.1318 32.2775 40.1474 32.2764C40.1754 32.2743 40.2035 32.2729 40.2316 32.2721C40.2894 32.2704 40.3475 32.2714 40.4059 32.2749C40.4314 32.2764 40.4567 32.2784 40.482 32.2809C40.4875 32.2809 40.5399 32.2871 40.5127 32.2838C40.4919 32.2812 40.539 32.2878 40.5433 32.2886C40.6034 32.2977 40.6627 32.3116 40.7206 32.3301C40.7319 32.3338 40.7431 32.3379 40.7542 32.3418C40.7505 32.3405 40.7213 32.3265 40.7464 32.3384C40.7716 32.3503 40.7941 32.3631 40.8178 32.3773C40.8259 32.382 40.8331 32.388 40.8411 32.393C40.7974 32.3657 40.8221 32.3768 40.832 32.3878C40.8345 32.3906 40.8665 32.4229 40.8657 32.4234C40.8937 32.4032 40.8215 32.389 40.8533 32.411C40.8585 32.4144 40.8599 32.4255 40.8639 32.4302C40.8801 32.449 40.8482 32.4068 40.8527 32.4034C40.8527 32.4034 40.8605 32.4322 40.8615 32.4357C40.863 32.4414 40.8634 32.4474 40.8648 32.4531C40.8725 32.4802 40.8465 32.4571 40.8606 32.4211C40.8596 32.4322 40.8601 32.4434 40.8621 32.4543C40.8612 32.4615 40.8609 32.4687 40.8613 32.4759C40.8599 32.4732 40.8746 32.42 40.8667 32.4365C40.862 32.446 40.8447 32.4974 40.8658 32.4528C40.887 32.4082 40.8626 32.4528 40.8587 32.4626C40.8463 32.4929 40.8699 32.4438 40.8769 32.4409C40.8713 32.4433 40.8645 32.4552 40.8604 32.4594C40.8563 32.4636 40.8473 32.4718 40.8416 32.4776C40.8189 32.5024 40.8558 32.4703 40.8589 32.4652C40.8501 32.4794 40.8196 32.4915 40.8059 32.4993C40.7849 32.5117 40.7629 32.5207 40.7417 32.532C40.7857 32.5086 40.7329 32.5354 40.7144 32.542C40.6463 32.566 40.577 32.5864 40.5068 32.6032C40.4437 32.6212 40.3902 32.6632 40.3577 32.7202C40.3253 32.7772 40.3165 32.8446 40.3333 32.908C40.3518 32.9708 40.3939 33.0239 40.4507 33.0562C40.5076 33.0886 40.5747 33.0976 40.6381 33.0815L40.6375 33.08Z" fill="#211715"/>
<path d="M39.0148 35.015C39.2026 35.3264 39.4359 35.6079 39.707 35.8502C39.8456 35.973 40.006 36.0819 40.1348 36.1919C40.2657 36.3011 40.3786 36.4302 40.4693 36.5745C40.5025 36.6313 40.5569 36.6725 40.6204 36.6892C40.684 36.7058 40.7516 36.6966 40.8084 36.6634C40.8651 36.6302 40.9064 36.5759 40.923 36.5123C40.9397 36.4487 40.9304 36.3811 40.8973 36.3244C40.7943 36.1595 40.6697 36.0093 40.5267 35.8776C40.3848 35.7492 40.2343 35.6517 40.098 35.5348C39.8389 35.3159 39.6177 35.0558 39.4431 34.765C39.4099 34.7083 39.3556 34.667 39.292 34.6503C39.2285 34.6336 39.1609 34.6429 39.1041 34.6761C39.0474 34.7092 39.0061 34.7636 38.9894 34.8271C38.9728 34.8907 38.982 34.9583 39.0152 35.015H39.0148Z" fill="#211715"/>
<path d="M38.1484 26.0324C38.6995 27.5296 39.2371 29.0316 39.7997 30.5245C39.9643 30.9614 40.1316 31.3972 40.3017 31.832C40.3207 31.8944 40.3629 31.9471 40.4196 31.9794C40.4763 32.0116 40.5431 32.021 40.6065 32.0055C40.6697 31.9877 40.7233 31.9458 40.7558 31.8887C40.7883 31.8317 40.797 31.7641 40.7799 31.7007C40.1605 30.1246 39.5857 28.5311 39.0062 26.9401C38.8801 26.5932 38.7536 26.2469 38.6266 25.9011C38.5173 25.6038 38.0382 25.7326 38.1488 26.0328L38.1484 26.0324Z" fill="#211715"/>
<path d="M37.6868 25.4061C37.6992 25.4371 37.7644 25.5975 37.8719 25.8613C37.899 25.9283 37.9516 25.9817 38.018 26.0101C38.0845 26.0384 38.1595 26.0393 38.2266 26.0126L38.5346 25.8887C38.6016 25.8617 38.6552 25.8094 38.6837 25.743C38.7121 25.6767 38.7132 25.6017 38.6866 25.5346C38.5822 25.2703 38.5481 25.1855 38.5056 25.0798C38.4592 24.9713 38.3752 24.8831 38.269 24.8317C38.1629 24.7802 38.0416 24.7688 37.9277 24.7996C37.817 24.85 37.7301 24.9413 37.6851 25.0544C37.6402 25.1674 37.6408 25.2935 37.6868 25.4061Z" fill="white"/>
<path d="M37.4477 25.4721L37.5468 25.7151C37.6206 25.8964 37.6731 26.0851 37.8457 26.1983C37.9269 26.2497 38.0205 26.278 38.1165 26.2802C38.216 26.2769 38.3135 26.2523 38.4026 26.2079C38.5865 26.1342 38.7874 26.0782 38.8878 25.89C38.9342 25.8057 38.9568 25.7104 38.9531 25.6143C38.9418 25.5172 38.9145 25.4226 38.8723 25.3344C38.8357 25.2422 38.799 25.1502 38.7621 25.0582C38.7397 24.9924 38.7101 24.9292 38.6738 24.8698C38.6204 24.7912 38.5533 24.7228 38.4756 24.6681C38.3444 24.5745 38.1858 24.5274 38.0248 24.5343C37.9241 24.5403 37.8263 24.5702 37.7394 24.6214C37.6525 24.6727 37.579 24.7438 37.525 24.829C37.4628 24.9228 37.4234 25.0298 37.4099 25.1415C37.3965 25.2533 37.4094 25.3666 37.4477 25.4724C37.4664 25.5351 37.5085 25.5881 37.5653 25.6204C37.6221 25.6527 37.6892 25.6619 37.7526 25.6459C37.8157 25.6279 37.8691 25.5858 37.9015 25.5289C37.934 25.4719 37.9428 25.4045 37.9261 25.3411C37.9182 25.3203 37.8905 25.2653 37.8977 25.2411L37.9017 25.2675C37.9008 25.2578 37.9004 25.2481 37.9003 25.2384C37.9002 25.2287 37.896 25.1995 37.9019 25.1904C37.9007 25.1924 37.8885 25.2495 37.9019 25.2006C37.9059 25.1856 37.909 25.1706 37.9136 25.1559C37.9266 25.1137 37.9296 25.1484 37.911 25.1559C37.9203 25.1408 37.9286 25.125 37.9357 25.1088C37.9431 25.0964 37.9516 25.0848 37.9593 25.0726C37.9774 25.0437 37.918 25.1133 37.9573 25.077C37.9651 25.0696 37.9722 25.0612 37.98 25.0538L37.9924 25.0431C38.0086 25.0296 38.0082 25.0296 37.9915 25.0431L37.9791 25.0533C37.9873 25.0477 37.9956 25.0425 38.0039 25.0376C38.0347 25.0154 37.9915 25.0444 37.9828 25.0444C37.9964 25.0415 38.0098 25.0373 38.0226 25.032L38.0364 25.0289C38.0627 25.0242 38.0548 25.0249 38.0127 25.0314C38.0344 25.0331 38.0562 25.0327 38.0779 25.03C38.1112 25.03 38.101 25.0477 38.0634 25.0265C38.0729 25.0293 38.0828 25.0313 38.0927 25.0322C38.1051 25.0349 38.1547 25.0584 38.1652 25.0543C38.1477 25.0606 38.1191 25.0315 38.1482 25.0478C38.164 25.0568 38.1801 25.0647 38.1954 25.0743C38.2054 25.0826 38.2162 25.09 38.2275 25.0963C38.2132 25.1016 38.1892 25.0618 38.2136 25.0872C38.2243 25.0984 38.2358 25.1099 38.247 25.1206C38.2751 25.1472 38.2306 25.1108 38.2384 25.1072C38.2546 25.1287 38.2687 25.1517 38.2803 25.1759C38.2895 25.1922 38.2927 25.2204 38.2723 25.1556C38.2751 25.1644 38.2792 25.173 38.2827 25.1815C38.3106 25.2509 38.3383 25.3203 38.3658 25.3898C38.3869 25.443 38.408 25.4961 38.429 25.5492C38.44 25.5769 38.4489 25.6055 38.4601 25.633C38.4793 25.6801 38.4647 25.5806 38.4601 25.6304V25.6461C38.4581 25.6735 38.4591 25.6669 38.4633 25.6267C38.4606 25.6278 38.4583 25.659 38.4551 25.6567C38.445 25.6489 38.4856 25.6052 38.458 25.6469C38.4303 25.6885 38.4643 25.6403 38.4654 25.641C38.469 25.6434 38.442 25.6617 38.4433 25.6635C38.4447 25.6652 38.4899 25.6287 38.4415 25.6617C38.4327 25.6678 38.4026 25.6786 38.4491 25.6596C38.4089 25.6761 38.3684 25.692 38.328 25.7081C38.2628 25.7343 38.1979 25.7615 38.1316 25.7848C38.0881 25.8 38.1461 25.7782 38.1501 25.7848H38.1029C38.1055 25.7822 38.1664 25.796 38.1228 25.7854C38.0749 25.7736 38.163 25.8125 38.1244 25.7876C38.0757 25.7563 38.1244 25.7897 38.1233 25.7912L38.1117 25.7806C38.094 25.7612 38.0966 25.7659 38.1195 25.7947C38.1132 25.786 38.1074 25.7768 38.1021 25.7674C38.078 25.7303 38.1154 25.8037 38.0955 25.7539C38.0687 25.6868 38.0409 25.6199 38.0137 25.5528C37.9851 25.4825 37.9565 25.4123 37.9279 25.3422C37.9091 25.2797 37.8669 25.2268 37.8102 25.1945C37.7534 25.1622 37.6864 25.153 37.623 25.1688C37.56 25.1863 37.5063 25.2279 37.4735 25.2846C37.4407 25.3413 37.4315 25.4086 37.4477 25.4721Z" fill="#211715"/>
<path d="M55.3965 27.3456C55.4236 27.3246 55.4545 27.3093 55.4875 27.3003C55.5205 27.2914 55.555 27.2891 55.5889 27.2936C55.6228 27.298 55.6555 27.3092 55.685 27.3264C55.7146 27.3435 55.7405 27.3664 55.7612 27.3937C55.8036 27.4823 55.822 27.5806 55.8144 27.6786C55.8187 27.7968 55.8107 27.9152 55.7905 28.0317C55.7141 28.4511 55.5032 28.9555 55.0366 29.0391C54.9735 29.057 54.9199 29.099 54.8874 29.156C54.855 29.213 54.8463 29.2805 54.8632 29.3439C54.8818 29.4066 54.9239 29.4596 54.9807 29.4919C55.0375 29.5243 55.1046 29.5334 55.1679 29.5174C55.8989 29.3863 56.2482 28.5619 56.3032 27.8992C56.3317 27.555 56.3007 27.1668 56.0034 26.9452C55.8618 26.8435 55.6897 26.7931 55.5156 26.8023C55.3415 26.8115 55.1758 26.8797 55.0457 26.9957C54.9997 27.0424 54.9739 27.1054 54.9739 27.1709C54.9739 27.2365 54.9997 27.2994 55.0457 27.3461C55.0928 27.3913 55.1556 27.4165 55.2208 27.4165C55.2861 27.4165 55.3489 27.3913 55.396 27.3461L55.3965 27.3456Z" fill="#211715"/>
<path d="M48.4813 26.9952C48.3511 26.8792 48.1853 26.811 48.0112 26.8018C47.8371 26.7927 47.6651 26.843 47.5234 26.9447C47.2261 27.1661 47.1952 27.5557 47.2237 27.8987C47.2788 28.5614 47.6279 29.3854 48.359 29.5169C48.4224 29.5325 48.4893 29.5232 48.546 29.4909C48.6027 29.4587 48.6449 29.4059 48.6638 29.3434C48.6807 29.28 48.672 29.2125 48.6395 29.1555C48.607 29.0985 48.5535 29.0565 48.4903 29.0386C48.0239 28.955 47.813 28.4506 47.7364 28.0312C47.7175 27.9213 47.7094 27.8097 47.7123 27.6982C47.7048 27.5988 47.7203 27.4989 47.7575 27.4064C47.7769 27.3767 47.8023 27.3513 47.8321 27.3318C47.8618 27.3124 47.8953 27.2994 47.9303 27.2936C47.9654 27.2877 48.0013 27.2892 48.0357 27.298C48.0702 27.3068 48.1024 27.3226 48.1304 27.3445C48.1777 27.3894 48.2405 27.4144 48.3057 27.4144C48.3709 27.4144 48.4336 27.3894 48.4809 27.3445C48.5269 27.2977 48.5527 27.2348 48.5527 27.1693C48.5527 27.1037 48.5269 27.0408 48.4809 26.9941L48.4813 26.9952Z" fill="#211715"/>
<path d="M51.1663 30.0171C51.3833 30.1299 51.6252 30.1864 51.8697 30.1814C52.129 30.1911 52.3841 30.1137 52.5942 29.9614C52.6172 29.9384 52.6355 29.9111 52.6479 29.881C52.6603 29.8509 52.6667 29.8187 52.6667 29.7861C52.6663 29.7205 52.6402 29.6577 52.5942 29.6109C52.5468 29.5663 52.4841 29.5414 52.419 29.5414C52.3538 29.5414 52.2912 29.5663 52.2437 29.6109C52.3296 29.544 52.243 29.608 52.216 29.6221C52.195 29.6331 52.1399 29.6505 52.2188 29.6233C52.1997 29.6299 52.1816 29.6377 52.1621 29.6439C52.1102 29.6606 52.0544 29.664 52.0031 29.6802C52.0293 29.6719 52.0454 29.6751 52.0079 29.6788C51.9923 29.6803 51.9767 29.6817 51.9611 29.6827C51.9239 29.6852 51.8859 29.686 51.8482 29.6858C51.8145 29.6858 51.7808 29.6845 51.7471 29.6822C51.7317 29.6812 51.7163 29.6799 51.7008 29.6783C51.692 29.6775 51.6833 29.6765 51.6744 29.6754C51.655 29.673 51.6629 29.6741 51.6985 29.6786C51.6963 29.6716 51.5664 29.6506 51.5498 29.6456C51.529 29.6394 51.5086 29.632 51.4878 29.6249C51.4329 29.6062 51.541 29.6497 51.4912 29.6268C51.4658 29.6149 51.4407 29.6025 51.4158 29.5896C51.3877 29.573 51.3566 29.5621 51.3243 29.5575C51.292 29.553 51.2591 29.5548 51.2275 29.563C51.1959 29.5712 51.1662 29.5856 51.1402 29.6053C51.1141 29.625 51.0922 29.6496 51.0758 29.6778C51.0593 29.706 51.0485 29.7372 51.0441 29.7695C51.0397 29.8019 51.0418 29.8348 51.0501 29.8663C51.0585 29.8979 51.073 29.9275 51.0928 29.9534C51.1127 29.9793 51.1374 30.0011 51.1657 30.0174L51.1663 30.0171Z" fill="#211715"/>
<path d="M51.7094 28.4045C51.7401 28.5152 51.7646 28.6274 51.783 28.7408L51.7741 28.6749C51.7763 28.6902 51.7767 28.7058 51.7753 28.7213L51.7843 28.6554C51.7832 28.6625 51.7815 28.6696 51.7791 28.6763L51.8038 28.6171C51.8018 28.6218 51.7994 28.6263 51.7965 28.6305L51.8352 28.5809C51.8319 28.5849 51.8282 28.5885 51.8243 28.5917L51.8738 28.5529C51.8653 28.5583 51.8565 28.563 51.8473 28.5671L51.9064 28.5423C51.8921 28.5485 51.877 28.5529 51.8616 28.5554L51.9275 28.5466C51.9135 28.5482 51.8994 28.5482 51.8854 28.5466L51.9511 28.5554C51.9353 28.5533 51.9197 28.5494 51.9038 28.5472C51.8718 28.537 51.8376 28.5354 51.8047 28.5428C51.7719 28.5442 51.7402 28.5544 51.7127 28.5723C51.6845 28.5887 51.66 28.6105 51.6403 28.6364C51.6206 28.6623 51.6062 28.6919 51.598 28.7233C51.5897 28.7548 51.5877 28.7876 51.5921 28.8199C51.5965 28.8521 51.6073 28.8832 51.6237 28.9113L51.6625 28.9614C51.6928 28.9918 51.7304 29.0137 51.7717 29.0251C51.8146 29.0309 51.8562 29.0416 51.8999 29.0436C51.9685 29.0437 52.0362 29.0272 52.0971 28.9954C52.1368 28.9765 52.1719 28.9491 52.1999 28.9151C52.2279 28.8812 52.2482 28.8415 52.2592 28.7989C52.2737 28.7318 52.2732 28.6624 52.2575 28.5956C52.2392 28.4873 52.2142 28.3799 52.1863 28.2734C52.1684 28.2115 52.1277 28.1586 52.0724 28.1254C52.0146 28.0922 51.9459 28.0833 51.8815 28.1006C51.8191 28.1179 51.7658 28.1587 51.7328 28.2145C51.7005 28.2726 51.6916 28.3409 51.7081 28.4054L51.7094 28.4045Z" fill="#211715"/>
<path d="M50.0041 27.4322C49.9479 27.6147 49.9845 28.0345 50.3302 28.0701C50.7872 28.0674 50.8115 27.5599 50.6576 27.3213C50.5317 27.1259 50.1614 27.0447 50.0041 27.4322Z" fill="#211715"/>
<path d="M53.6633 27.4322C53.7194 27.6147 53.6829 28.0345 53.3372 28.0701C52.8803 28.0674 52.8558 27.5599 53.0097 27.3213C53.1356 27.1259 53.5059 27.0447 53.6633 27.4322Z" fill="#211715"/>
<path d="M41.2002 37.1776C41.1083 36.9461 41.0429 36.7042 40.945 36.4751L40.7969 36.8391C41.0971 36.7276 41.3925 36.6013 41.6875 36.4772C42.094 36.3065 42.5036 36.1371 42.8965 35.9364L42.5575 35.8476C42.6606 36.0561 42.7593 36.2669 42.8594 36.4769C42.893 36.5332 42.9473 36.574 43.0107 36.5907C43.0741 36.6073 43.1415 36.5984 43.1984 36.5658C43.2541 36.5317 43.2945 36.4774 43.3111 36.4142C43.3276 36.351 43.3192 36.2838 43.2874 36.2267C43.1873 36.0167 43.0885 35.8055 42.9853 35.5975C42.9514 35.5416 42.8971 35.5011 42.8338 35.4845C42.7706 35.4679 42.7033 35.4765 42.6463 35.5085C42.2842 35.6935 41.8906 35.8589 41.5284 36.0109C41.2423 36.1308 40.9561 36.2535 40.6652 36.3613C40.6293 36.3723 40.5962 36.3912 40.5685 36.4166C40.5407 36.442 40.5189 36.4733 40.5048 36.5081C40.4906 36.543 40.4843 36.5805 40.4865 36.6181C40.4886 36.6557 40.4991 36.6923 40.5172 36.7253C40.4756 36.6279 40.5257 36.7566 40.5334 36.7792C40.5531 36.8357 40.5724 36.8924 40.5919 36.949C40.6335 37.0698 40.6752 37.1906 40.7222 37.3095C40.7413 37.3718 40.7835 37.4245 40.8402 37.4568C40.8969 37.489 40.9638 37.4984 41.0271 37.4829C41.0903 37.4651 41.1439 37.4231 41.1764 37.3661C41.2089 37.3091 41.2175 37.2415 41.2006 37.1781L41.2002 37.1776Z" fill="#211715"/>
<path d="M54.3363 22.7223C53.6506 21.3751 51.8514 21.248 50.5407 21.5005C50.195 21.5525 49.8682 21.6915 49.5909 21.9045C49.3461 22.1094 49.6983 22.4584 49.9414 22.255C50.1565 22.0748 50.5403 21.9936 50.8403 21.9497C51.224 21.8975 51.6121 21.8856 51.9982 21.9143C52.754 21.9638 53.5425 22.2537 53.9083 22.9728C54.053 23.2578 54.4807 23.0067 54.3363 22.7228V22.7223Z" fill="#211715"/>
<path d="M54.7773 28.9469C54.7641 29.1197 54.7265 29.2897 54.6658 29.4519C54.6578 29.4767 54.6494 29.5 54.6411 29.5242C54.6392 29.5295 54.6147 29.5939 54.6328 29.549C54.6195 29.5727 54.6077 29.5972 54.5973 29.6223C54.493 29.8252 54.3723 30.0193 54.2364 30.2025C53.9201 30.6371 53.493 31.0934 52.9638 31.2468C52.6581 31.3354 52.7881 31.8138 53.0956 31.7247C53.7494 31.535 54.2536 31.0101 54.6461 30.4774C54.9779 30.0273 55.249 29.5182 55.2726 28.9469C55.2857 28.628 54.7901 28.6285 54.777 28.9469H54.7773Z" fill="#211715"/>
<path d="M48.2068 28.9761C48.3157 29.6098 48.5788 30.2069 48.9729 30.715C49.3861 31.2325 49.9617 31.6715 50.6294 31.7759C50.6928 31.7913 50.7596 31.7819 50.8162 31.7497C50.8729 31.7174 50.9151 31.6648 50.9342 31.6024C50.9512 31.539 50.9425 31.4715 50.91 31.4144C50.8775 31.3574 50.8239 31.3154 50.7607 31.2975C50.17 31.2052 49.6845 30.8259 49.3228 30.3641C48.9912 29.9159 48.7721 29.3946 48.6841 28.844C48.6662 28.7809 48.6242 28.7273 48.5672 28.6949C48.5101 28.6624 48.4426 28.6537 48.3792 28.6706C48.3165 28.6891 48.2634 28.7312 48.2311 28.788C48.1988 28.8449 48.1897 28.912 48.2058 28.9754L48.2068 28.9761Z" fill="#211715"/>
<path d="M49.008 22.2987C48.1981 22.6804 47.6807 23.5353 47.4665 24.378C47.2559 25.2081 47.2164 26.2064 47.5153 27.0201C47.6244 27.3175 48.1036 27.1887 47.9932 26.8884C47.7276 26.1655 47.7543 25.293 47.9337 24.5528C48.1142 23.8077 48.5424 23.0639 49.2582 22.7266C49.5465 22.5903 49.2953 22.1634 49.008 22.2987Z" fill="#211715"/>
<path d="M54.4841 23.4925C55.0004 23.7857 55.2986 24.3494 55.4381 24.9109C55.5997 25.5744 55.5907 26.268 55.412 26.9271C55.3273 27.2349 55.8052 27.3663 55.89 27.0588C56.0956 26.2991 56.1008 25.4991 55.9052 24.7368C55.7297 24.0678 55.3477 23.4129 54.7344 23.0642C54.4566 22.9065 54.2066 23.3346 54.4843 23.4922L54.4841 23.4925Z" fill="#211715"/>
<path d="M52.3471 24.6826C52.1247 24.5777 51.8831 24.5198 51.6374 24.5126C51.3916 24.5053 51.147 24.5488 50.9189 24.6404C50.7018 24.7304 50.4949 24.8864 50.2601 24.9254C50.0381 24.9626 49.8126 24.8851 49.5884 24.9181C49.4764 24.938 49.3704 24.9828 49.2781 25.0492C49.1858 25.1156 49.1097 25.2019 49.0553 25.3018C48.9137 25.5201 48.7894 25.7491 48.6836 25.9868C48.6008 26.1703 48.5143 26.3512 48.4349 26.536C48.3904 26.6395 48.3331 26.7343 48.2823 26.8348C48.2681 26.8626 48.2575 26.8921 48.2451 26.9205C48.2368 26.9406 48.2275 26.9602 48.2171 26.9795C48.1911 27.0203 48.1978 27.0149 48.2372 26.9632L48.3623 26.9294H48.3847L48.494 26.9931L48.4692 26.9728C48.2252 26.7712 47.8727 27.1198 48.1189 27.3233C48.156 27.3603 48.2015 27.3878 48.2516 27.4034C48.3016 27.4191 48.3547 27.4224 48.4063 27.4132C48.4579 27.4039 48.5065 27.3824 48.5481 27.3504C48.5896 27.3184 48.6228 27.2768 48.6448 27.2292C48.7423 27.0533 48.8294 26.8717 48.9056 26.6855C49.0711 26.2901 49.2506 25.843 49.5145 25.5034C49.6461 25.3339 49.8862 25.4157 50.0729 25.4262C50.3214 25.4323 50.5672 25.3728 50.7853 25.2537C50.9837 25.1365 51.2009 25.0544 51.4273 25.0113C51.6554 24.9836 51.8868 25.0178 52.0972 25.1104C52.1543 25.1416 52.2213 25.1499 52.2844 25.1333C52.3474 25.1168 52.4017 25.0768 52.4363 25.0215C52.4689 24.9647 52.4779 24.8972 52.4612 24.8338C52.4446 24.7703 52.4037 24.716 52.3473 24.6824L52.3471 24.6826Z" fill="#211715"/>
<path d="M50.9456 24.1007C51.3314 24.018 51.7343 24.0844 52.0731 24.2866C52.2082 24.3606 52.3277 24.46 52.425 24.5795C52.432 24.5879 52.4602 24.6243 52.4408 24.5987C52.4532 24.6157 52.4656 24.6331 52.478 24.6506C52.5002 24.6828 52.5211 24.7158 52.5414 24.7497C52.5899 24.8296 52.6334 24.9123 52.6756 24.9955C52.7088 25.0523 52.7631 25.0935 52.8267 25.1102C52.8903 25.1269 52.9579 25.1176 53.0147 25.0844C53.0714 25.0512 53.1126 24.9969 53.1293 24.9333C53.146 24.8697 53.1367 24.8021 53.1035 24.7454C52.9334 24.3694 52.6518 24.0548 52.2969 23.8442C51.8474 23.5881 51.3185 23.5094 50.8139 23.6236C50.7506 23.6411 50.6967 23.683 50.6643 23.7402C50.6318 23.7973 50.6234 23.865 50.6409 23.9284C50.6583 23.9918 50.7003 24.0456 50.7574 24.0781C50.8146 24.1105 50.8823 24.1189 50.9456 24.1015V24.1007Z" fill="#211715"/>
<path d="M53.4138 25.0535C53.9277 25.1774 54.242 25.5615 54.4879 26.0063C54.6327 26.2584 54.7454 26.5276 54.8234 26.8078C54.8422 26.8801 54.8594 26.953 54.8729 27.0264C54.8862 27.0962 54.8853 27.1745 54.9051 27.242C54.9671 27.45 55.1993 27.4686 55.3612 27.3712C55.6338 27.207 55.3852 26.7783 55.1111 26.9433C55.1228 26.9471 55.1187 26.9489 55.0987 26.9486H55.2305L55.2181 26.9454L55.3275 27.0092L55.3194 27.001L55.3833 27.1103C55.3943 27.1495 55.3681 26.9969 55.3709 27.016C55.365 26.9755 55.3585 26.935 55.351 26.8947C55.3386 26.828 55.3229 26.7615 55.3061 26.6956C55.2715 26.5606 55.2275 26.4281 55.1744 26.2992C55.0641 26.0242 54.9285 25.7601 54.7693 25.5103C54.4766 25.0585 54.0786 24.7036 53.5453 24.5752C53.2355 24.5008 53.1031 24.9783 53.4136 25.053L53.4138 25.0535Z" fill="#211715"/>
<path d="M51.9674 32.7933C51.9625 32.7969 51.9583 32.8014 51.955 32.8067H51.6567C51.618 32.7733 51.5731 32.7481 51.5245 32.7323C50.8448 32.4589 50.2777 32.0418 50.0293 31.7079C49.7844 31.9332 49.7064 32.1075 49.5471 32.4127C49.8743 33.726 50.4087 35.126 50.8369 36.3937C51.1797 37.409 51.4469 38.0831 51.8508 39.0848C52.1539 38.1878 52.4569 37.2908 52.7597 36.3937C53.19 35.1194 53.7275 33.7121 54.0543 32.3931C53.9017 32.1 53.822 31.9284 53.5823 31.7079C53.3345 32.0418 52.7668 32.4589 52.0871 32.7323C52.045 32.748 52.0049 32.7685 51.9674 32.7933Z" fill="white"/>
<path d="M52.9827 33.943C53.4031 33.4526 53.7499 32.9035 54.0122 32.3132C53.9108 32.0844 53.7642 31.8784 53.5814 31.7076C53.3336 32.0415 52.7659 32.4585 52.0862 32.732C52.0377 32.7477 51.9928 32.773 51.9542 32.8063C51.9378 32.8365 51.9695 32.8632 51.9844 32.8871C52.0078 32.9242 52.1225 33.0205 52.3179 33.235C52.5401 33.4786 52.7996 33.7242 52.9827 33.943Z" fill="white"/>
<path d="M50.6275 33.943C50.2071 33.4526 49.8604 32.9035 49.5981 32.3132C49.6995 32.0844 49.846 31.8784 50.0288 31.7076C50.2766 32.0415 50.8443 32.4585 51.524 32.732C51.5726 32.7477 51.6175 32.773 51.6562 32.8063C51.6724 32.8365 51.6408 32.8632 51.6258 32.8871C51.6025 32.9242 51.4877 33.0205 51.2923 33.235C51.0706 33.4786 50.811 33.7242 50.6275 33.943Z" fill="white"/>
<path d="M51.995 32.9993C51.8273 32.9999 51.6876 33.0002 51.5181 33.0003C51.4625 33.0555 51.3868 33.1315 51.2923 33.2357C51.2416 33.2912 51.1891 33.3472 51.1358 33.4024C51.173 33.5966 51.1995 33.7193 51.2407 33.8961C51.2474 33.9272 51.2552 33.957 51.2629 33.9881C51.2823 34.0546 51.2935 34.1232 51.2962 34.1924C51.2962 34.2321 51.102 35.65 50.9661 36.7718C51.251 37.5888 51.4988 38.2127 51.8503 39.0849C52.1282 38.2621 52.406 37.4393 52.6839 36.6165C52.5129 35.4729 52.3319 34.2779 52.333 34.2146C52.3415 34.0907 52.3684 33.9687 52.4129 33.8527C52.4609 33.7058 52.4902 33.5772 52.5216 33.4508C52.4524 33.3794 52.3837 33.3075 52.3183 33.2357C52.223 33.131 52.1468 33.0546 52.0912 32.9995L51.995 32.9993Z" fill="#3F88C9"/>
<path d="M51.3435 34.4304C51.6631 34.4304 51.9829 34.4234 52.3026 34.4233C52.3683 34.4233 52.4313 34.3972 52.4778 34.3507C52.5243 34.3042 52.5504 34.2412 52.5504 34.1755C52.5504 34.1097 52.5243 34.0467 52.4778 34.0002C52.4313 33.9538 52.3683 33.9277 52.3026 33.9277C51.9829 33.9277 51.6631 33.9347 51.3435 33.9349C51.2778 33.9349 51.2147 33.961 51.1683 34.0074C51.1218 34.0539 51.0957 34.1169 51.0957 34.1827C51.0957 34.2484 51.1218 34.3114 51.1683 34.3579C51.2147 34.4043 51.2778 34.4304 51.3435 34.4304Z" fill="#211715"/>
<path d="M50.9119 33.5453C50.9459 33.7156 50.9845 33.8846 51.0234 34.0533C51.0409 34.1157 51.0472 34.1808 51.042 34.2454C51.0242 34.424 50.9959 34.6021 50.9726 34.78C50.8884 35.4204 50.8044 36.0608 50.726 36.7018C50.7263 36.7674 50.7526 36.8302 50.799 36.8766C50.8453 36.923 50.9081 36.9492 50.9737 36.9496C51.039 36.9481 51.1011 36.9215 51.1473 36.8754C51.1934 36.8292 51.22 36.7671 51.2215 36.7018C51.3014 36.0483 51.3872 35.3954 51.473 34.7424C51.4953 34.5733 51.5256 34.403 51.5391 34.2328C51.5603 33.967 51.4408 33.673 51.3892 33.4131C51.3272 33.1007 50.8492 33.2329 50.9113 33.545L50.9119 33.5453Z" fill="#211715"/>
<path d="M52.0728 32.7516C51.8832 32.7516 51.6936 32.752 51.504 32.7528C51.4384 32.7537 51.3757 32.7796 51.3288 32.8254C51.2941 32.86 51.2705 32.9042 51.261 32.9522C51.2514 33.0003 51.2563 33.0501 51.2751 33.0954C51.2938 33.1406 51.3256 33.1793 51.3663 33.2066C51.4071 33.2338 51.455 33.2483 51.504 33.2483C51.6939 33.2483 51.8835 33.248 52.0728 33.2472C52.1383 33.2463 52.2011 33.2204 52.2481 33.1746C52.2827 33.14 52.3063 33.0958 52.3159 33.0477C52.3254 32.9997 52.3205 32.9498 52.3018 32.9046C52.283 32.8593 52.2512 32.8206 52.2105 32.7934C52.1697 32.7662 52.1218 32.7516 52.0728 32.7516Z" fill="#211715"/>
<path d="M52.9227 36.5491C52.832 35.943 52.7403 35.337 52.6515 34.7308C52.6369 34.6317 52.6225 34.5323 52.6084 34.4325C52.6027 34.3925 52.597 34.3523 52.5915 34.3123C52.5981 34.36 52.5894 34.2967 52.5876 34.2803C52.5628 34.0688 52.676 33.8524 52.7273 33.6504C52.8059 33.3407 52.328 33.2092 52.2495 33.5186C52.1887 33.758 52.0682 34.0078 52.0894 34.2591C52.1041 34.4346 52.1368 34.6104 52.1622 34.7846C52.2543 35.4165 52.3503 36.0483 52.4448 36.6808C52.4626 36.744 52.5046 36.7976 52.5616 36.8301C52.6187 36.8626 52.6862 36.8713 52.7496 36.8543C52.8122 36.8355 52.8651 36.7933 52.8974 36.7366C52.9296 36.6798 52.9389 36.6128 52.9231 36.5495L52.9227 36.5491Z" fill="#211715"/>
<path d="M51.5194 39.2913C51.384 39.6854 51.3247 40.1016 51.3446 40.5179C51.3687 40.8746 51.3941 41.2313 51.4112 41.5885C51.4595 42.5836 51.5272 43.5774 51.6142 44.57C51.6158 44.6352 51.6425 44.6973 51.6886 44.7434C51.7347 44.7895 51.7968 44.8161 51.8619 44.8178C51.9275 44.8173 51.9903 44.7911 52.0366 44.7447C52.083 44.6983 52.1093 44.6356 52.1097 44.57C52.0239 43.5912 51.9545 42.6103 51.9088 41.6287C51.8919 41.2694 51.8678 40.9094 51.8425 40.5501C51.8204 40.1678 51.873 39.7848 51.9974 39.4226C52.0957 39.1185 51.6174 38.9881 51.5194 39.2908V39.2913Z" fill="#211715"/>
<path d="M48.5163 32.6557C48.0284 32.8591 47.54 33.0614 47.0543 33.2718C46.8084 33.3785 46.5633 33.487 46.3202 33.6001C46.1108 33.6974 45.8955 33.7799 45.6864 33.8768C45.1993 34.1027 44.9906 34.6399 44.8202 35.112C44.6527 35.5762 44.5132 36.0489 44.3775 36.5231C44.2189 37.0774 44.05 37.6271 43.8448 38.1662C43.8278 38.2296 43.8365 38.2971 43.869 38.3542C43.9014 38.4112 43.9551 38.4532 44.0182 38.471C44.0816 38.487 44.1487 38.4779 44.2056 38.4456C44.2624 38.4132 44.3045 38.3602 44.3231 38.2975C44.6588 37.416 44.8758 36.5 45.1728 35.6061C45.3051 35.2079 45.437 34.613 45.8165 34.3672C46.0089 34.2664 46.2075 34.1779 46.4112 34.1023C46.6321 33.9971 46.8552 33.8962 47.0792 33.7975C47.599 33.5683 48.1239 33.3515 48.6482 33.1325C48.7105 33.1133 48.7631 33.0711 48.7953 33.0145C48.8275 32.9579 48.837 32.8911 48.8217 32.8278C48.804 32.7645 48.762 32.7109 48.7049 32.6784C48.6479 32.6459 48.5803 32.6373 48.5169 32.6543L48.5163 32.6557Z" fill="#211715"/>
<path d="M53.8624 32.1329C53.5813 33.3269 53.161 34.4824 52.7578 35.6392C52.3346 36.8534 51.9312 38.0738 51.52 39.2915C51.4177 39.5945 51.8961 39.7244 51.9979 39.4234C52.4091 38.2055 52.8126 36.9847 53.2357 35.771C53.639 34.6143 54.0591 33.4589 54.3402 32.2648C54.4132 31.955 53.9355 31.8221 53.8624 32.1329Z" fill="#211715"/>
<path d="M53.9756 32.4127C54.2014 32.5562 54.4099 32.7253 54.5969 32.9166C54.6971 33.0151 54.7916 33.1193 54.8797 33.2288C54.9155 33.2741 54.9493 33.3207 54.9813 33.3688C54.9959 33.391 55.0103 33.4134 55.0241 33.4361C55.0402 33.4631 55.0612 33.5377 55.0578 33.4672L55.0916 33.3422L55.0727 33.3702L55.1617 33.2813C54.9767 33.4024 54.7714 33.4997 54.5779 33.6063C54.5455 33.6257 54.5179 33.6522 54.4972 33.6838C54.4765 33.7154 54.4632 33.7513 54.4584 33.7888C54.4536 33.8263 54.4573 33.8643 54.4693 33.9002C54.4813 33.936 54.5013 33.9686 54.5277 33.9956C54.6399 34.0972 54.7517 34.1992 54.8613 34.3035C54.9161 34.3559 54.9707 34.4087 55.0243 34.4624C55.051 34.4891 55.0775 34.5161 55.1037 34.5432C55.1516 34.5738 55.1602 34.5873 55.1295 34.5836V34.4519C55.1037 34.6189 54.9549 34.8105 54.8736 34.9599C54.778 35.1362 54.6814 35.312 54.5839 35.4873C54.3856 35.8445 54.1845 36.2 53.9804 36.5541C53.5762 37.2568 53.1653 37.9555 52.7477 38.6501C52.5837 38.9246 53.012 39.1741 53.1757 38.9003C53.7116 38.0035 54.2426 37.1038 54.7563 36.1936C55.0099 35.7446 55.2584 35.2926 55.5018 34.8379C55.5657 34.7422 55.605 34.6322 55.6163 34.5177C55.6067 34.3924 55.5486 34.2757 55.4542 34.1926C55.2732 33.9997 55.074 33.8225 54.8781 33.645L54.8285 34.0341L55.2313 33.812C55.3544 33.7441 55.5039 33.6823 55.545 33.533C55.6034 33.3211 55.391 33.0831 55.2725 32.9306C54.9819 32.5566 54.628 32.2364 54.2268 31.9848C53.9542 31.8168 53.7054 32.245 53.9766 32.4126L53.9756 32.4127Z" fill="#211715"/>
<path d="M49.2559 32.2646C49.4881 33.1935 49.7681 34.1098 50.0948 35.0098C50.4015 35.893 50.6949 36.7823 51.024 37.6576C51.2019 38.1311 51.39 38.6007 51.579 39.07C51.5981 39.1323 51.6403 39.185 51.697 39.2173C51.7536 39.2495 51.8205 39.2589 51.8838 39.2434C51.947 39.2257 52.0007 39.1837 52.0332 39.1267C52.0656 39.0696 52.0743 39.0021 52.0573 38.9387C51.3635 37.2165 50.74 35.4598 50.1741 33.6912C50.0095 33.1771 49.858 32.6589 49.7343 32.1334C49.6612 31.8237 49.1834 31.9544 49.2565 32.2651L49.2559 32.2646Z" fill="#211715"/>
<path d="M49.3698 31.9849C48.9686 32.2366 48.6147 32.5567 48.3242 32.9307C48.2055 33.0828 47.9931 33.3221 48.0516 33.5331C48.0928 33.6818 48.2422 33.7437 48.3652 33.8121L48.7681 34.0343L48.7186 33.6451C48.5106 33.8243 48.3119 34.0139 48.123 34.2131C48.0725 34.2595 48.034 34.3175 48.0108 34.382C47.9875 34.4465 47.9801 34.5157 47.9893 34.5836C48.0219 34.7043 48.0731 34.8191 48.1411 34.924C48.3839 35.3752 48.6367 35.8211 48.8944 36.2639C49.4338 37.1907 49.9959 38.1039 50.5615 39.0144C50.7294 39.2849 51.1583 39.0363 50.9894 38.7643C50.5434 38.0469 50.1009 37.3279 49.6691 36.6023C49.4568 36.2459 49.2479 35.8875 49.0424 35.5272C48.9433 35.3525 48.8451 35.1772 48.7477 35.0013C48.696 34.9078 48.6448 34.814 48.594 34.7199C48.5376 34.6379 48.4948 34.5473 48.4672 34.4516V34.5833C48.4364 34.587 48.445 34.5735 48.4929 34.5429C48.5193 34.5157 48.5457 34.4887 48.5725 34.4621C48.6261 34.4083 48.6805 34.3555 48.7355 34.3031C48.8451 34.1988 48.9569 34.0968 49.0691 33.9953C49.0955 33.9683 49.1155 33.9356 49.1275 33.8998C49.1395 33.864 49.1432 33.8259 49.1384 33.7884C49.1336 33.751 49.1203 33.7151 49.0996 33.6835C49.0789 33.6519 49.0513 33.6254 49.0189 33.606C48.8252 33.4992 48.6201 33.402 48.4351 33.281L48.5239 33.3698L48.5051 33.3418L48.5389 33.4668C48.5364 33.5246 48.5413 33.4839 48.5629 33.4523C48.5778 33.4308 48.5902 33.4074 48.6044 33.3854C48.6353 33.3377 48.668 33.2908 48.7036 33.2459C48.7956 33.1299 48.895 33.0198 49.0009 32.9162C49.1879 32.7249 49.3963 32.5558 49.6221 32.4124C49.8931 32.2452 49.6444 31.8164 49.372 31.9845L49.3698 31.9849Z" fill="#211715"/>
<path d="M53.1582 34.1182C53.4884 33.7313 53.7765 33.3105 54.0178 32.8627C54.0763 32.752 54.132 32.64 54.1851 32.5268C54.2331 32.4537 54.2578 32.3677 54.2558 32.2802C54.2387 32.2098 54.2099 32.1428 54.1705 32.082C54.0638 31.8775 53.9241 31.692 53.7569 31.533C53.7297 31.5071 53.697 31.4875 53.6613 31.4758C53.6255 31.4641 53.5876 31.4605 53.5503 31.4653C53.513 31.4701 53.4773 31.4832 53.4457 31.5036C53.4141 31.524 53.3875 31.5512 53.3677 31.5832C53.3946 31.5476 53.3351 31.6212 53.3294 31.6277C53.312 31.6476 53.294 31.6671 53.2758 31.6862C53.2293 31.7347 53.1805 31.7811 53.1301 31.8257C53.0208 31.9214 52.9049 32.0094 52.7832 32.0888C52.6362 32.1858 52.4837 32.2741 52.3264 32.3533C52.1648 32.4186 52.0067 32.492 51.8526 32.5733C51.6544 32.7012 51.6819 32.9171 51.8194 33.0763C51.8864 33.1538 51.9649 33.2222 52.0358 33.2962C52.2953 33.5665 52.5659 33.8328 52.8081 34.1189C52.8548 34.1648 52.9177 34.1905 52.9833 34.1905C53.0488 34.1905 53.1117 34.1648 53.1585 34.1189C53.2037 34.0717 53.229 34.0089 53.229 33.9436C53.229 33.8783 53.2037 33.8155 53.1585 33.7684C52.9626 33.537 52.7418 33.3284 52.5358 33.1064C52.449 33.0126 52.3623 32.9192 52.2711 32.829C52.2456 32.8042 52.2203 32.7779 52.1947 32.7528C52.1856 32.7446 52.1773 32.7356 52.1699 32.7259L52.1989 32.7631C52.1858 32.7473 52.1747 32.7299 52.1659 32.7114L52.1998 32.8365L52.2025 32.8074L52.1299 32.9826C52.0972 33.0168 52.1729 32.964 52.1903 32.9562C52.2468 32.9314 52.3045 32.9086 52.3609 32.8836C52.4455 32.8461 52.529 32.8061 52.6115 32.7636C52.7776 32.6783 52.9382 32.5826 53.0923 32.4771C53.36 32.3019 53.5976 32.0845 53.7959 31.8335L53.4068 31.883C53.5692 32.0435 53.7019 32.2315 53.7988 32.4383V32.1879C53.5402 32.7563 53.2068 33.2875 52.8076 33.7676C52.7627 33.8149 52.7377 33.8777 52.7377 33.9429C52.7377 34.0081 52.7627 34.0708 52.8076 34.1181C52.8543 34.1641 52.9173 34.19 52.9829 34.19C53.0485 34.19 53.1115 34.1642 53.1582 34.1182Z" fill="#211715"/>
<path d="M50.8022 33.7677C50.4029 33.2877 50.0695 32.7564 49.811 32.1881V32.4382C49.9078 32.2314 50.0405 32.0434 50.2029 31.8829L49.8137 31.8333C50.0121 32.0844 50.2497 32.3017 50.5173 32.477C50.6715 32.5824 50.8321 32.6781 50.9982 32.7634C51.0808 32.8059 51.1643 32.8459 51.2487 32.8835C51.3053 32.9083 51.3629 32.9311 51.4194 32.9561C51.4367 32.9639 51.5124 33.0167 51.4799 32.9825L51.4073 32.8073L51.4099 32.8364L51.4438 32.7113C51.4375 32.7253 51.4294 32.7385 51.4198 32.7505C51.4014 32.7753 51.4074 32.7673 51.4398 32.7258C51.4324 32.7355 51.4241 32.7445 51.4151 32.7527C51.392 32.7747 51.3698 32.7978 51.3473 32.8202C51.2535 32.9132 51.1637 33.0095 51.074 33.1063C50.8678 33.3283 50.647 33.5369 50.4512 33.7682C50.4062 33.8155 50.3812 33.8783 50.3812 33.9435C50.3812 34.0087 50.4062 34.0714 50.4512 34.1187C50.4979 34.1647 50.5608 34.1905 50.6263 34.1905C50.6919 34.1905 50.7548 34.1647 50.8015 34.1187C51.0439 33.8327 51.3143 33.5664 51.5739 33.2961C51.7533 33.1091 52.1141 32.8032 51.757 32.5731C51.6029 32.4919 51.4448 32.4185 51.2832 32.3532C51.126 32.274 50.9735 32.1857 50.8266 32.0887C50.7049 32.0093 50.5889 31.9213 50.4797 31.8255C50.4293 31.7809 50.3805 31.7346 50.334 31.686C50.3157 31.667 50.2978 31.6475 50.2803 31.6276C50.2746 31.6211 50.2151 31.5475 50.242 31.5831C50.2223 31.5511 50.1956 31.5239 50.164 31.5035C50.1324 31.4831 50.0967 31.47 50.0594 31.4652C50.0221 31.4604 49.9842 31.464 49.9485 31.4757C49.9127 31.4874 49.8801 31.5069 49.8529 31.5329C49.6894 31.6877 49.5523 31.8682 49.4471 32.0673C49.4111 32.1241 49.3814 32.1846 49.3584 32.2478C49.3444 32.3393 49.3651 32.4327 49.4164 32.5098C49.4722 32.6288 49.5307 32.7466 49.5919 32.8632C49.8333 33.3109 50.1214 33.7318 50.4515 34.1187C50.4982 34.1647 50.5612 34.1905 50.6267 34.1905C50.6923 34.1905 50.7552 34.1647 50.8019 34.1187C50.8473 34.0716 50.8727 34.0087 50.8727 33.9433C50.8727 33.8778 50.8475 33.8149 50.8022 33.7677Z" fill="#211715"/>
<path d="M56.9556 44.5703C56.9525 43.2463 56.8011 41.8948 57.0368 40.583C57.2748 39.2579 57.4734 37.9256 57.6457 36.5903C57.7347 35.8996 57.8144 35.2078 57.8846 34.5147C57.8841 34.4491 57.8579 34.3864 57.8115 34.34C57.7651 34.2936 57.7024 34.2674 57.6368 34.2669C57.5715 34.2683 57.5092 34.2948 57.4631 34.341C57.4169 34.3872 57.3903 34.4494 57.389 34.5147C57.2622 35.7908 57.0971 37.0632 56.9067 38.3307C56.8069 38.9949 56.6988 39.6577 56.5824 40.3191C56.4659 41.0079 56.4117 41.7058 56.4206 42.4044C56.4226 43.1266 56.4578 43.8477 56.46 44.5697C56.4608 44.8885 56.9563 44.8891 56.9556 44.5697V44.5703Z" fill="#211715"/>
<path d="M45.6438 34.6363C45.7713 35.9158 45.9382 37.1915 46.1303 38.4629C46.2316 39.1326 46.3413 39.801 46.4594 40.4681C46.5673 41.1374 46.6145 41.8151 46.6003 42.4929C46.5982 43.1857 46.5631 43.8777 46.5611 44.5704C46.5611 44.8893 47.0567 44.8897 47.0567 44.5704C47.0597 43.2869 47.1952 41.9846 47.0017 40.7089C46.9001 40.0381 46.7694 39.3715 46.665 38.7009C46.562 38.0393 46.467 37.3765 46.38 36.7125C46.2899 36.0216 46.2097 35.3295 46.1395 34.6363C46.1378 34.5711 46.1111 34.5091 46.065 34.463C46.0189 34.4169 45.9569 34.3902 45.8917 34.3885C45.8261 34.3889 45.7634 34.4152 45.717 34.4616C45.6706 34.5079 45.6444 34.5707 45.6439 34.6363H45.6438Z" fill="#211715"/>
<path d="M54.8963 33.0895C55.8104 33.4708 56.7159 33.8681 57.6188 34.2742C57.7957 34.3497 57.9522 34.4661 58.0753 34.6139C58.1984 34.7617 58.2846 34.9366 58.3269 35.1243C58.393 35.3514 58.4446 35.5827 58.4925 35.8145C58.8289 37.4384 59.0069 39.0996 59.1768 40.7476C59.3074 42.0135 59.4179 43.2814 59.5085 44.5512C59.5314 44.8673 60.0271 44.8698 60.0041 44.5512C59.8458 42.3717 59.6441 40.1935 59.3517 38.0278C59.2504 37.2776 59.1403 36.5273 58.9912 35.7853C58.8631 35.147 58.7349 34.4108 58.1673 34.0092C57.9521 33.8806 57.7258 33.7714 57.4912 33.683C57.2334 33.5624 56.9759 33.4417 56.7155 33.3268C56.1565 33.0804 55.5919 32.8469 55.0281 32.6119C54.9647 32.5948 54.8971 32.6035 54.8401 32.6359C54.783 32.6684 54.741 32.7221 54.7234 32.7854C54.7076 32.8487 54.7168 32.9157 54.7491 32.9725C54.7814 33.0292 54.8343 33.0714 54.8968 33.0902L54.8963 33.0895Z" fill="#211715"/>
<path d="M52.8305 40.0208C52.8497 40.0379 52.8674 40.0567 52.8833 40.0769L52.8445 40.0267C52.8614 40.0492 52.8758 40.0734 52.8873 40.0991L52.8625 40.0398C52.8742 40.0676 52.8823 40.0967 52.8866 40.1266L52.8778 40.0608C52.8819 40.0931 52.8819 40.1257 52.8778 40.158L52.8866 40.0922C52.8816 40.1275 52.8722 40.162 52.8585 40.1948L52.8833 40.1357C52.8725 40.1615 52.8587 40.1859 52.8422 40.2083L52.8809 40.1582C52.8651 40.1781 52.847 40.1961 52.8268 40.2117L52.8764 40.173C52.8526 40.1907 52.8268 40.2054 52.7995 40.2169L52.8586 40.1921C52.8265 40.2051 52.7929 40.2141 52.7587 40.219L52.8246 40.2102C52.7858 40.2151 52.7465 40.2151 52.7077 40.2102L52.7735 40.219C52.7407 40.2145 52.7085 40.2059 52.6777 40.1935L52.737 40.2182C52.7138 40.2085 52.6919 40.196 52.6717 40.1811L52.7212 40.2199C52.6977 40.2012 52.6763 40.1799 52.6577 40.1564L52.6965 40.2066C52.6793 40.1843 52.665 40.1598 52.654 40.1339L52.6787 40.1931C52.67 40.1709 52.6638 40.1479 52.6603 40.1243L52.6691 40.1902C52.6656 40.1626 52.6656 40.1345 52.6691 40.1069L52.6602 40.1728C52.6653 40.1378 52.6749 40.1037 52.6888 40.0712L52.664 40.1303C52.6814 40.0908 52.7036 40.0537 52.73 40.0196L52.6913 40.0698C52.7062 40.0504 52.7234 40.0328 52.7424 40.0173L52.6922 40.0561C52.714 40.0396 52.7376 40.0258 52.7626 40.0149L52.7034 40.0397C52.7364 40.026 52.771 40.0166 52.8064 40.0118L52.7404 40.0208C52.7741 40.0165 52.8082 40.0165 52.8419 40.0208L52.7761 40.0118C52.8047 40.016 52.8328 40.0234 52.8596 40.0341L52.8004 40.0094C52.8247 40.0197 52.8477 40.0331 52.8687 40.0491L52.8185 40.0103C52.8222 40.0134 52.8261 40.0165 52.8296 40.0198C52.8771 40.0648 52.9395 40.0906 53.0048 40.0922C53.0706 40.0922 53.1336 40.0661 53.18 40.0197C53.2265 39.9732 53.2526 39.9102 53.2526 39.8445C53.2528 39.8119 53.2464 39.7796 53.2339 39.7496C53.2215 39.7195 53.2031 39.6922 53.18 39.6693C53.121 39.6171 53.0524 39.577 52.978 39.5512C52.9201 39.5319 52.8594 39.522 52.7984 39.5219C52.6794 39.5192 52.5622 39.5513 52.4612 39.6141C52.3554 39.6854 52.2729 39.7861 52.224 39.9039C52.1751 40.0217 52.1619 40.1513 52.1861 40.2765C52.2217 40.4142 52.3071 40.5339 52.4259 40.6124C52.4964 40.6566 52.575 40.6865 52.6572 40.7002C52.7393 40.714 52.8234 40.7114 52.9045 40.6926C52.9856 40.6737 53.0622 40.639 53.1299 40.5905C53.1976 40.5419 53.255 40.4805 53.2988 40.4097C53.325 40.3605 53.3448 40.3081 53.3578 40.2539C53.3722 40.1949 53.3776 40.1341 53.3738 40.0735C53.3674 39.9904 53.3451 39.9093 53.3081 39.8347C53.2762 39.772 53.2328 39.7158 53.18 39.6693C53.1328 39.6239 53.0703 39.598 53.0048 39.5967C52.9392 39.5972 52.8764 39.6232 52.8296 39.6693C52.8066 39.6923 52.7884 39.7196 52.7759 39.7497C52.7634 39.7797 52.757 39.812 52.757 39.8445C52.757 39.8771 52.7634 39.9093 52.7759 39.9394C52.7884 39.9694 52.8066 39.9968 52.8296 40.0198L52.8305 40.0208Z" fill="#211715"/>
<path d="M44.7383 39.1534C44.3086 38.2018 43.9136 37.236 43.5197 36.2692C43.5087 36.2332 43.4899 36.2 43.4645 36.1722C43.4392 36.1443 43.4079 36.1225 43.373 36.1082C43.3382 36.094 43.3006 36.0877 43.263 36.0898C43.2253 36.092 43.1887 36.1025 43.1556 36.1205C42.3368 36.5113 41.4978 36.963 40.6061 37.1624C40.543 37.1804 40.4895 37.2224 40.4571 37.2794C40.4246 37.3364 40.4159 37.4039 40.4327 37.4673C40.6778 38.2527 40.918 39.0402 41.2002 39.8134C41.4497 40.4967 41.7121 41.2072 42.0859 41.8344C42.4095 42.3772 42.8766 42.8029 43.524 42.8801C44.1923 42.9597 44.8808 42.6738 45.366 42.2247C45.8434 41.7658 46.2852 41.2713 46.6876 40.7453C46.7322 40.6979 46.7571 40.6353 46.7571 40.5701C46.7571 40.505 46.7322 40.4424 46.6876 40.395C46.6409 40.3489 46.578 40.323 46.5124 40.323C46.4468 40.323 46.3838 40.3489 46.3372 40.395C45.9943 40.8316 45.6295 41.2505 45.244 41.65C44.8388 42.0657 44.3577 42.3886 43.7549 42.3971C43.1948 42.4052 42.8009 42.0601 42.5251 41.6028C42.2012 41.0261 41.9316 40.4206 41.7198 39.7939C41.4194 38.985 41.1681 38.1594 40.9111 37.336L40.7377 37.6408C41.1948 37.5247 41.64 37.3664 42.0677 37.1677C42.5191 36.9733 42.9621 36.7606 43.4058 36.549L43.0418 36.4003C43.4519 37.4068 43.8631 38.4122 44.3104 39.4029C44.3439 39.4593 44.3982 39.5002 44.4616 39.5169C44.525 39.5335 44.5925 39.5245 44.6493 39.4919C44.7049 39.4576 44.7452 39.4033 44.7617 39.3402C44.7783 39.277 44.7699 39.2099 44.7383 39.1528V39.1534Z" fill="#211715"/>
</g>
<defs>
<clipPath id="clip0_29_2">
<rect width="60" height="60" fill="white" transform="translate(0.00476074 0.61676)"/>
</clipPath>
</defs>
</svg>
